<?xml version="1.0" encoding="utf-8"?>
<!-- Generator: Adobe Illustrator 23.0.2, SVG Export Plug-In . SVG Version: 6.00 Build 0)  -->
<svg version="1.1" id="Layer_1" xmlns="http://www.w3.org/2000/svg" xmlns:xlink="http://www.w3.org/1999/xlink" x="0px" y="0px"
	 viewBox="0 0 11.7 5.9" style="enable-background:new 0 0 11.7 5.9;" xml:space="preserve">
<style type="text/css">
	.st0{fill:#4D5C77;}
</style>
<title>arrow</title>
<path class="st0" d="M2.4,0.2L0.2,2.4c-0.3,0.3-0.3,0.8,0,1.1l2.2,2.2C2.7,6,3.2,6,3.5,5.7l0,0c0.3-0.3,0.3-0.8,0-1.1L2.6,3.7h8.3
	c0.4,0,0.8-0.3,0.8-0.8v0c0-0.4-0.3-0.8-0.8-0.8H2.6l0.9-0.9c0.3-0.3,0.3-0.8,0-1.1l0,0C3.2-0.1,2.7-0.1,2.4,0.2z"/>
</svg>
