<svg xmlns="http://www.w3.org/2000/svg" viewBox="0 0 18.86 16.05"><defs><style>.cls-1{fill:#d8d8d8;}</style></defs><title>chat</title><g id="Layer_2" data-name="Layer 2"><g id="Layer_1-2" data-name="Layer 1"><path class="cls-1" d="M15.21,8.67V1.74A1.74,1.74,0,0,0,13.47,0H1.74A1.74,1.74,0,0,0,0,1.74V8.67a1.74,1.74,0,0,0,1.74,1.74h.5V12.5a.7.7,0,0,0,.7.7h0A.7.7,0,0,0,3.47,13l2.2-2.54h7.8A1.74,1.74,0,0,0,15.21,8.67Zm-9.76.8a.45.45,0,0,0-.36.16L3.18,11.84V9.94a.47.47,0,0,0-.48-.48h-1a.8.8,0,0,1-.8-.79V1.74a.8.8,0,0,1,.8-.8H13.47a.8.8,0,0,1,.8.8V8.67a.8.8,0,0,1-.8.8Z"/><path class="cls-1" d="M15.4,15.81a.67.67,0,0,0,.52.24.56.56,0,0,0,.25-.05.68.68,0,0,0,.46-.65V13.26h.49a1.74,1.74,0,0,0,1.74-1.74V4.59a1.74,1.74,0,0,0-1.74-1.74.47.47,0,0,0-.47.47.48.48,0,0,0,.47.48.79.79,0,0,1,.8.79v6.93a.8.8,0,0,1-.8.8h-1a.47.47,0,0,0-.48.47v1.9l-1.91-2.21a.48.48,0,0,0-.36-.16H6.32a.48.48,0,0,0,0,.95H13.2Z"/><circle class="cls-1" cx="7.61" cy="5.37" r="0.56"/><circle class="cls-1" cx="9.49" cy="5.37" r="0.56"/><circle class="cls-1" cx="5.72" cy="5.37" r="0.56"/></g></g></svg>