<svg xmlns="http://www.w3.org/2000/svg" xmlns:xlink="http://www.w3.org/1999/xlink" viewBox="0 0 20.64 20.64"><defs><style>.cls-1{fill:#fff;}.cls-2{fill:url(#linear-gradient);}</style><linearGradient id="linear-gradient" y1="10.32" x2="20.64" y2="10.32" gradientUnits="userSpaceOnUse"><stop offset="0" stop-color="#4987ea"/><stop offset="1" stop-color="#00369e"/></linearGradient></defs><title>cross</title><g id="Layer_2" data-name="Layer 2"><g id="Layer_1-2" data-name="Layer 1"><rect class="cls-1" x="3.82" y="5.15" width="13.28" height="9.96"/><path class="cls-2" d="M17.61,3a10.32,10.32,0,1,0,0,14.59A10.31,10.31,0,0,0,17.61,3ZM14,12.92A.74.74,0,0,1,12.92,14l-2.6-2.61L7.71,14a.74.74,0,1,1-1-1.05l2.61-2.6L6.67,7.71a.74.74,0,1,1,1-1l2.61,2.61,2.6-2.61a.74.74,0,1,1,1.05,1l-2.61,2.61Z"/></g></g></svg>