<svg xmlns="http://www.w3.org/2000/svg" viewBox="0 0 14.24 14.25"><defs><style>.cls-1{fill:#4d5c77;}</style></defs><title>detect-location</title><g id="Layer_2" data-name="Layer 2"><g id="Layer_1-2" data-name="Layer 1"><path class="cls-1" d="M7,0a.35.35,0,0,0-.12.1c-.05.07-.06.11-.06.4V.85l-.32,0A6.24,6.24,0,0,0,2.69,2.69,6.16,6.16,0,0,0,.88,6.52l0,.33H.51c-.32,0-.33,0-.42.08a.21.21,0,0,0-.09.2.21.21,0,0,0,.09.19c.09.08.1.08.42.08H.84l0,.33a6.16,6.16,0,0,0,1.81,3.83,6.24,6.24,0,0,0,3.83,1.81l.32,0v.32c0,.33,0,.34.08.42a.25.25,0,0,0,.4,0c.08-.08.08-.09.08-.42v-.32l.33,0a6.31,6.31,0,0,0,5.64-5.64l0-.33h.33c.33,0,.33,0,.42-.08a.19.19,0,0,0,.09-.19.2.2,0,0,0-.09-.2c-.09-.08-.09-.08-.42-.08H13.4l0-.33A6.31,6.31,0,0,0,7.73.88L7.4.85V.52C7.4.2,7.4.18,7.32.1A.27.27,0,0,0,7,0ZM6.85,2.07c0,.59,0,.62.07.68a.28.28,0,0,0,.18.08.22.22,0,0,0,.21-.06l.08-.07V1.43l.26,0a5.88,5.88,0,0,1,2,.54,5.8,5.8,0,0,1,2.63,2.64,5.62,5.62,0,0,1,.55,2l0,.25h-.63c-.61,0-.64,0-.7.07a.42.42,0,0,0-.07.18.22.22,0,0,0,.06.21l.07.08h1.27l0,.25a6,6,0,0,1-.27,1.28,5.85,5.85,0,0,1-2.36,3,5.73,5.73,0,0,1-2.51.85l-.26,0v-.63c0-.6,0-.63-.06-.69a.27.27,0,0,0-.19-.07.2.2,0,0,0-.2.05l-.08.07v1.27l-.26,0a5.44,5.44,0,0,1-1.28-.27,5.72,5.72,0,0,1-3-2.35,6,6,0,0,1-.86-2.52V7.41h.63c.6,0,.63,0,.69-.07a.38.38,0,0,0,.07-.18.22.22,0,0,0-.06-.21L2.7,6.86H1.43V6.59a6.68,6.68,0,0,1,.27-1.28A5.79,5.79,0,0,1,4.63,2a5.93,5.93,0,0,1,2-.55h.17Z"/><path class="cls-1" d="M6.87,5.14a2,2,0,0,0-1.74,2A2,2,0,1,0,8,5.34,2.27,2.27,0,0,0,6.87,5.14Z"/></g></g></svg>