<?xml version="1.0" encoding="utf-8"?>
<!-- Generator: Adobe Illustrator 23.0.2, SVG Export Plug-In . SVG Version: 6.00 Build 0)  -->
<svg version="1.1" id="Layer_1" xmlns="http://www.w3.org/2000/svg" xmlns:xlink="http://www.w3.org/1999/xlink" x="0px" y="0px"
	 viewBox="0 0 7.6 7.5" style="enable-background:new 0 0 7.6 7.5;" xml:space="preserve">
<style type="text/css">
	.st0{fill:#4D5C77;}
</style>
<title>direction--arrow</title>
<g>
	<path class="st0" d="M7.3,2.5c0.1-0.1,0.2-0.2,0.2-0.3s0-0.3-0.1-0.4c0,0,0,0-0.1-0.1l0,0L5.7,0.2C5.5,0,5.2,0,4.9,0.2
		C4.7,0.4,4.7,0.8,4.9,1l0.6,0.6H0.7c-0.3,0-0.6,0.3-0.6,0.6s0.3,0.6,0.6,0.6h4.8L4.9,3.3c-0.2,0.2-0.2,0.6,0,0.8s0.6,0.2,0.8,0
		L7.3,2.5L7.3,2.5z"/>
</g>
<path class="st0" d="M0.3,5C0.2,5.1,0.1,5.2,0.1,5.3s0,0.3,0.1,0.4c0,0,0,0,0.1,0.1l0,0l1.6,1.5c0.2,0.2,0.5,0.2,0.8,0
	c0.2-0.2,0.2-0.6,0-0.8L2.1,5.9h4.8c0.3,0,0.6-0.3,0.6-0.6c0-0.3-0.3-0.6-0.6-0.6H2.1l0.6-0.5c0.2-0.2,0.2-0.6,0-0.8s-0.6-0.2-0.8,0
	L0.3,5L0.3,5z"/>
</svg>
