<svg xmlns="http://www.w3.org/2000/svg" viewBox="0 0 5.96 6.16"><defs><style>.cls-1{fill:#4d5c77;}</style></defs><title>double-arrow</title><g id="Layer_2" data-name="Layer 2"><g id="Layer_1-2" data-name="Layer 1"><path class="cls-1" d="M5.9,2.94,3,.06A.18.18,0,0,0,2.88,0a.2.2,0,0,0-.14.06L2.43.37a.2.2,0,0,0-.06.14.18.18,0,0,0,.06.14L4.86,3.08,2.43,5.51a.19.19,0,0,0,0,.28l.31.31a.2.2,0,0,0,.14.06A.18.18,0,0,0,3,6.1L5.9,3.22a.19.19,0,0,0,0-.28Z"/><path class="cls-1" d="M3.59,3.08a.2.2,0,0,0-.06-.14L.65.06A.18.18,0,0,0,.51,0,.2.2,0,0,0,.37.06L.06.37A.2.2,0,0,0,0,.51.18.18,0,0,0,.06.65L2.49,3.08.06,5.51a.19.19,0,0,0,0,.28l.31.31a.2.2,0,0,0,.14.06A.18.18,0,0,0,.65,6.1L3.53,3.22A.2.2,0,0,0,3.59,3.08Z"/></g></g></svg>