<svg xmlns="http://www.w3.org/2000/svg" viewBox="0 0 9.4 13.15"><defs><style>.cls-1{fill:#00369e;stroke:#f1f2f0;stroke-miterlimit:10;stroke-width:0.5px;}</style></defs><title>gender</title><g id="Layer_2" data-name="Layer 2"><g id="Layer_1-2" data-name="Layer 1"><path class="cls-1" d="M2.84,9.06v.85H1.36v1.48H2.84V12.9H4.33V11.39H5.81V9.91H4.33V9.06A3.34,3.34,0,0,0,6.92,5.81,3.25,3.25,0,0,0,6.4,4L7.66,2.78v.44H9.15v-3h-3V1.73h.44L5.36,3A3.33,3.33,0,1,0,2.84,9.06ZM3.59,4A1.85,1.85,0,1,1,1.73,5.81,1.85,1.85,0,0,1,3.59,4Z"/></g></g></svg>