<svg xmlns="http://www.w3.org/2000/svg" viewBox="0 0 9 9"><defs><style>.cls-1{fill:#ced2d6;}.cls-2{fill:#fff;}</style></defs><title>inactive-check</title><g id="Layer_2" data-name="Layer 2"><g id="Layer_1-2" data-name="Layer 1"><path class="cls-1" d="M4.5,8.19A3.69,3.69,0,1,1,8.19,4.5,3.69,3.69,0,0,1,4.5,8.19Z"/><polygon class="cls-2" points="6.19 2.85 4.01 5.07 2.89 3.95 2.29 4.54 4.05 6.3 6.88 3.56 6.19 2.85"/><path class="cls-1" d="M4.5,0A4.5,4.5,0,1,0,9,4.5,4.49,4.49,0,0,0,4.5,0Zm0,8.19A3.69,3.69,0,1,1,8.19,4.5,3.69,3.69,0,0,1,4.5,8.19Z"/></g></g></svg>