<svg xmlns="http://www.w3.org/2000/svg" viewBox="0 0 15.94 12.13"><defs><style>.cls-1{fill:#00369e;}</style></defs><title>mail</title><g id="Layer_2" data-name="Layer 2"><g id="Layer_1-2" data-name="Layer 1"><path class="cls-1" d="M14,0H2A2,2,0,0,0,0,2v8.23a2,2,0,0,0,2,2H14a2,2,0,0,0,1.95-2V2A2,2,0,0,0,14,0Zm1.06,10.18A1.07,1.07,0,0,1,14,11.24H2A1.07,1.07,0,0,1,.89,10.18V2A1.07,1.07,0,0,1,2,.89H14A1.07,1.07,0,0,1,15.05,2v8.23Z"/><path class="cls-1" d="M10.05,6,14,2.47a.44.44,0,0,0,0-.63.45.45,0,0,0-.63,0L8,6.63,6.93,5.69h0l-.07-.06L2.58,1.8A.45.45,0,0,0,2,2.47L5.93,6,2,9.67a.45.45,0,0,0,0,.63.43.43,0,0,0,.32.14.42.42,0,0,0,.3-.12l4-3.73,1.08,1a.48.48,0,0,0,.3.11.44.44,0,0,0,.3-.12l1.11-1,4,3.76a.43.43,0,0,0,.31.13.45.45,0,0,0,.3-.77Z"/></g></g></svg>