<svg xmlns="http://www.w3.org/2000/svg" viewBox="0 0 237.85 184.73"><defs><style>.cls-1{isolation:isolate;}.cls-2{fill:#393c41;}.cls-3{fill:#2a2d30;}.cls-4{fill:#62b2f0;}.cls-5{fill:#2278ba;}.cls-6{fill:#1e2d4f;}.cls-7{fill:#fffbff;}.cls-8{fill:#2d4375;}.cls-9{fill:#ccc;}.cls-10{fill:#83c8fc;}.cls-11{fill:#fff;opacity:0.3;mix-blend-mode:screen;}.cls-12{fill:#e0e0e0;}</style></defs><title>open-car</title><g class="cls-1"><g id="Layer_2" data-name="Layer 2"><g id="Layer_1-2" data-name="Layer 1"><path class="cls-2" d="M39.28,98.76v26.12A10.53,10.53,0,0,1,28.91,135.3H20.22A10.52,10.52,0,0,1,9.7,124.78v-26A10.51,10.51,0,0,1,20.22,88.24h8.54A10.52,10.52,0,0,1,39.28,98.76Z"/><rect class="cls-3" x="25.97" y="113.63" width="1.62" height="21.67"/><rect class="cls-3" x="21.39" y="113.63" width="1.62" height="21.67"/><polygon class="cls-3" points="39.27 115.38 39.27 117.74 27.59 129.5 26.91 130.18 26.91 127.83 27.59 127.15 39.27 115.38"/><polygon class="cls-3" points="39.27 122.52 39.27 124.88 28.91 135.3 26.91 135.3 26.91 134.97 27.59 134.29 39.27 122.52"/><polygon class="cls-3" points="39.27 108.24 39.27 110.6 27.59 122.36 26.91 123.04 26.91 120.69 27.59 120.01 39.27 108.24"/><polygon class="cls-3" points="9.7 115.38 9.7 117.74 21.39 129.5 22.07 130.18 22.07 127.83 21.39 127.15 9.7 115.38"/><polygon class="cls-3" points="9.7 122.52 9.7 124.88 20.06 135.3 22.07 135.3 22.07 134.97 21.39 134.29 9.7 122.52"/><polygon class="cls-3" points="9.7 108.24 9.7 110.6 21.39 122.36 22.07 123.04 22.07 120.69 21.39 120.01 9.7 108.24"/><path class="cls-2" d="M166.31,98.76v26.12A10.52,10.52,0,0,1,156,135.3h-8.69a10.53,10.53,0,0,1-10.53-10.52v-26a10.52,10.52,0,0,1,10.53-10.52h8.54A10.51,10.51,0,0,1,166.31,98.76Z"/><rect class="cls-3" x="153.01" y="113.63" width="1.62" height="21.67"/><rect class="cls-3" x="148.42" y="113.63" width="1.62" height="21.67"/><polygon class="cls-3" points="166.31 115.38 166.31 117.74 154.62 129.5 153.94 130.18 153.94 127.83 154.62 127.15 166.31 115.38"/><polygon class="cls-3" points="166.31 122.52 166.31 124.88 155.95 135.3 153.94 135.3 153.94 134.97 154.62 134.29 166.31 122.52"/><polygon class="cls-3" points="166.31 108.24 166.31 110.6 154.62 122.36 153.94 123.04 153.94 120.69 154.62 120.01 166.31 108.24"/><polygon class="cls-3" points="136.73 115.38 136.73 117.74 148.42 129.5 149.11 130.18 149.11 127.83 148.42 127.15 136.73 115.38"/><polygon class="cls-3" points="136.73 122.52 136.73 124.88 147.1 135.3 149.11 135.3 149.11 134.97 148.42 134.29 136.73 122.52"/><polygon class="cls-3" points="136.73 108.24 136.73 110.6 148.42 122.36 149.11 123.04 149.11 120.69 148.42 120.01 136.73 108.24"/><path class="cls-3" d="M166.45,33.1H155.54A5.93,5.93,0,0,0,149.61,39c0,.12,0,.24,0,.36l-8.24,6.24,1.35,1.78,7.53-5.69A5.92,5.92,0,0,0,155.53,45h10.91a5.94,5.94,0,1,0,0-11.88Z"/><path class="cls-3" d="M9.07,33.09H20A6,6,0,0,1,25.9,39c0,.13,0,.25,0,.36l8.24,6.25-1.35,1.78-7.53-5.7A5.89,5.89,0,0,1,20,45H9.06a5.94,5.94,0,1,1,0-11.87Z"/><path class="cls-4" d="M175.82,75.43a13.57,13.57,0,0,0-2.78-6.8q-7.22-8.49-14.65-16.77a9.9,9.9,0,0,0-6.44-3l-64.83,0-63,0a10,10,0,0,0-6.45,3Q10.25,60.07,3,68.54A13.51,13.51,0,0,0,.22,75.33C.1,77.59.06,78.72,0,81H0a267.37,267.37,0,0,0,1.85,32.13c.72,5.15,6.46,9.35,12.46,9.35l72.81,0,74.53,0c6,0,11.74-4.18,12.47-9.33.2-1.4.3-2.1.47-3.51h0A197.3,197.3,0,0,0,175.82,75.43Z"/><path class="cls-5" d="M141.56,7.15a1.08,1.08,0,0,0,0-.19c0-3.83-24.19-6.94-54-7h-.49V51l69.82,0Z"/><path class="cls-5" d="M33.51,6.9a.57.57,0,0,0,0,.18L18.61,51l68.46,0V0C57.45,0,33.51,3.09,33.51,6.9Z"/><path class="cls-6" d="M138.26,8.48c-4.13-2.07-22.89-4.71-50.47-4.72h-.72c-27.21,0-45.68,2.62-49.78,4.65L25.47,45l61.6,0,63,0Z"/><path class="cls-3" d="M60.25,79.93h55.58a3.31,3.31,0,0,1,3.31,3.31v15.4a3.31,3.31,0,0,1-3.31,3.31H60.24a3.3,3.3,0,0,1-3.3-3.3V83.23a3.3,3.3,0,0,1,3.3-3.3Z"/><path class="cls-5" d="M26.17,60.55H26V79.93H24.35v8.31H45V79.93C45,69.22,36.57,60.55,26.17,60.55Z"/><path class="cls-5" d="M18.44,97.54A11.7,11.7,0,0,1,6.77,85.85v-.37A11.68,11.68,0,0,1,18.44,73.81h.16l.16,0c6.72,2,28.56,9,27.29,14.88S41.56,97.54,36,97.54Z"/><path class="cls-7" d="M45,88.49c-1.11,5.14-3.61,7.94-9,7.94H18.44A10.57,10.57,0,0,1,7.87,85.85v-.37A10.57,10.57,0,0,1,18.44,74.91S46.13,83.15,45,88.49Z"/><path class="cls-5" d="M149.91,60.55h.14V79.93h1.68v8.31H131.07V79.93C131.07,69.22,139.51,60.55,149.91,60.55Z"/><path class="cls-5" d="M157.63,97.54a11.7,11.7,0,0,0,11.68-11.69v-.37a11.68,11.68,0,0,0-11.68-11.67h-.16l-.15,0c-6.72,2-28.56,9-27.29,14.88s4.49,8.81,10.07,8.81Z"/><path class="cls-7" d="M131.1,88.49c1.11,5.14,3.61,7.94,9,7.94h17.53a10.57,10.57,0,0,0,10.58-10.58v-.37a10.57,10.57,0,0,0-10.58-10.57S130,83.15,131.1,88.49Z"/><polygon class="cls-6" points="28.74 34.91 25.47 45.02 87.07 45.05 150.03 45.09 140.97 16.9 28.74 34.91"/><path class="cls-8" d="M138.26,8.48c-4.13-2.07-22.89-4.71-50.47-4.72h-.72c-27.21,0-45.68,2.62-49.78,4.65l-8.55,26.5L141,16.9Z"/><path class="cls-3" d="M145.86,104.1l-2.78,4.14H33l-2.78-4.14H.92c.25,3,.54,6,.9,9,.72,5.15,6.45,9.35,12.45,9.35l72.81,0,74.54,0c6,0,11.74-4.18,12.47-9.33.2-1.4.29-2.1.47-3.51h0q.34-2.8.6-5.61Z"/><rect class="cls-7" x="60.32" y="110.11" width="55.45" height="10.13" rx="2.79"/><polygon class="cls-9" points="187.43 122.25 178.74 130.2 168.45 118.93 177.13 110.98 187.43 122.25"/><rect class="cls-9" x="181.33" y="123.11" width="11.77" height="15.27" transform="translate(-39.18 160.55) rotate(-42.43)"/><rect class="cls-9" x="191.49" y="134.22" width="11.77" height="15.27" transform="translate(-44.02 170.27) rotate(-42.42)"/><rect class="cls-9" x="177.02" y="119.2" width="12.52" height="14.46" transform="translate(-37.3 156.75) rotate(-42.42)"/><rect class="cls-10" x="173.75" y="120.59" width="19.06" height="11.68" transform="translate(-37.3 156.8) rotate(-42.44)"/><polygon class="cls-10" points="234.42 166.82 218.94 180.97 186.4 143.97 200.47 131.11 234.42 166.82"/><polygon class="cls-5" points="234.42 166.82 200.47 131.11 197.25 134.06 228.4 166.82 216.26 177.92 218.94 180.97 234.42 166.82"/><path id="_9" data-name="9" class="cls-11" d="M108.76,99.63a37.09,37.09,0,0,1-3.51-24.26c1.83-8.77,5.16-17,12.26-22.64a37.3,37.3,0,0,1,10.77-6,36.06,36.06,0,0,1,5.79-1.54c1.48-.25,4.36.13,5.62-.51C133.17,48,127,52.36,122.83,58.4c-5.21,7.66-6.25,17.69-3.45,26.44a29.07,29.07,0,0,0,6.94,11.59c3.54,3.59,8.53,4.8,12.06,8.19,2.3,2.21,4.27,4.89,4.68,8.14,1.21,9.59-10.52,7.67-16,5.09A40.46,40.46,0,0,1,108.76,99.63Z"/><g id="_8" data-name="8"><path class="cls-9" d="M149.89,126A44,44,0,1,0,99.6,89.29,44,44,0,0,0,149.89,126Zm-1-6.27a37.66,37.66,0,1,1,31.38-43A37.66,37.66,0,0,1,148.91,119.69Z"/><path class="cls-12" d="M150.59,130.38A48.49,48.49,0,1,0,95.17,90,48.48,48.48,0,0,0,150.59,130.38Zm-1.09-6.91a41.5,41.5,0,1,1,34.58-47.41A41.47,41.47,0,0,1,149.5,123.47Z"/></g><rect class="cls-9" x="217.91" y="173.23" width="20.97" height="5.09" transform="matrix(0.74, -0.67, 0.67, 0.74, -58.77, 200.24)"/></g></g></g></svg>