<?xml version="1.0" encoding="utf-8"?>
<!-- Generator: Adobe Illustrator 23.0.2, SVG Export Plug-In . SVG Version: 6.00 Build 0)  -->
<svg version="1.1" id="Layer_1" xmlns="http://www.w3.org/2000/svg" xmlns:xlink="http://www.w3.org/1999/xlink" x="0px" y="0px"
	 viewBox="0 0 31.3 12.5" style="enable-background:new 0 0 31.3 12.5;" xml:space="preserve">
<style type="text/css">
	.st0{fill:#D8D8D8;}
	.st1{fill:#FFFFFF;}
</style>
<title>ride</title>
<g>
	<rect x="16.2" y="4.7" class="st0" width="2.1" height="1"/>
	<path class="st0" d="M30.1,4.7c-1.8-1-3.9-1.6-6-1.6l-1.8-1C19.8,0.7,16.8,0,13.9,0h-0.6c-2.5,0-5,0.5-7.3,1.6
		C5.3,1.9,4.6,2.2,4,2.6L0.4,3.1C0.2,3.2,0,3.4,0,3.6v4.2c0,0.8,0.5,1.8,1.3,2.1l1.4,0.5h0.6c0.4,1.2,1.5,2,2.7,2.1h0.6
		c0.2,0,0.5-0.1,0.7-0.2c0.9-0.3,1.6-1,1.9-1.9l3.3,0v0h10.7c0.3,0.9,1,1.6,1.9,1.9c1.6,0.6,3.4-0.3,4-1.9h1.8
		c0.3,0,0.5-0.2,0.5-0.5V6.8C31.3,6,30.8,5.2,30.1,4.7z M8.3,9.8c-0.2,1.1-1.3,1.9-2.5,1.6S4,10.1,4.2,9c0.2-1.1,1.3-1.9,2.5-1.6
		c1,0.2,1.7,1.1,1.7,2.1C8.3,9.5,8.3,9.7,8.3,9.8z M13.6,9.4h-1.1v0l-3.1,0c0-1.7-1.4-3.1-3.1-3.1c-1.7,0-3.1,1.4-3.1,3.1H2.8
		L1.6,8.9C1.3,8.8,1,8.3,1,7.9V5.7h1.6v-1H1V4.1l3.2-0.5c0.1,0,0.1,0,0.2-0.1C5,3.2,5.5,2.9,6.1,2.7L7.5,4c0.1,0.1,0.2,0.2,0.4,0.2
		h5.7V9.4z M13.6,3.1H8L7.1,2.2c2-0.8,4-1.2,6.1-1.2h0.3V3.1z M14.6,1.1c2.5,0.1,5,0.8,7.2,2l0.1,0h-7.3V1.1z M26.5,11.4
		c-1.1,0.2-2.2-0.5-2.5-1.6c0-0.1,0-0.3,0-0.4c0-1,0.7-1.9,1.7-2.1c1.1-0.2,2.2,0.5,2.5,1.6C28.4,10.1,27.6,11.2,26.5,11.4z
		 M30.3,9.4h-1.1c0-1.7-1.4-3.1-3.1-3.1c-1.7,0-3.1,1.4-3.1,3.1h-8.4V4.2H24c2,0,3.9,0.5,5.6,1.5c0.4,0.2,0.7,0.7,0.7,1.2V9.4z"/>
</g>
<circle class="st1" cx="6.2" cy="9.4" r="2.2"/>
</svg>
