<svg xmlns="http://www.w3.org/2000/svg" viewBox="0 0 11.46 5.73"><defs><style>.cls-1{fill:#4d5c77;}</style></defs><title>arrow</title><g id="Layer_2" data-name="Layer 2"><g id="Layer_1-2" data-name="Layer 1"><path class="cls-1" d="M2.45,3.58h8.29a.72.72,0,1,0,0-1.43H2.45l.92-.93a.71.71,0,1,0-1-1L.21,2.36l0,.05h0l0,.05h0l0,0h0l0,0h0s0,0,0,.06H0s0,0,0,.06v0a.07.07,0,0,1,0,0v.15A.07.07,0,0,1,0,3V3s0,0,0,.06H0s0,0,0,.06h0l0,0h0l0,0h0l0,.05h0l0,.05L2.36,5.52a.71.71,0,0,0,1,0,.71.71,0,0,0,0-1Z"/></g></g></svg>