<svg xmlns="http://www.w3.org/2000/svg" viewBox="0 0 21 21"><defs><style>.cls-1{fill:#3053a5;}.cls-2{fill:#fff;}</style></defs><title>Asset 27</title><g id="Layer_2" data-name="Layer 2"><g id="Layer_1-2" data-name="Layer 1"><circle class="cls-1" cx="10.5" cy="10.5" r="10.5"/><path class="cls-2" d="M15.23,10.5h0c0,.49-.56.88-1.24.88H7c-.68,0-1.24-.39-1.24-.88h0c0-.49.56-.88,1.24-.88h7C14.67,9.62,15.23,10,15.23,10.5Z"/><path class="cls-2" d="M10.5,15.23h0c-.49,0-.88-.56-.88-1.24V7c0-.68.39-1.24.88-1.24h0c.49,0,.88.56.88,1.24v7C11.38,14.67,11,15.23,10.5,15.23Z"/></g></g></svg>