<svg xmlns="http://www.w3.org/2000/svg" xmlns:xlink="http://www.w3.org/1999/xlink" viewBox="0 0 35.97 35.97"><defs><style>.cls-1{fill:url(#linear-gradient);}.cls-2{fill:#fff;}</style><linearGradient id="linear-gradient" y1="17.98" x2="35.97" y2="17.98" gradientUnits="userSpaceOnUse"><stop offset="0" stop-color="#00369e"/><stop offset="1" stop-color="#4987ea"/></linearGradient></defs><title>Asset 29</title><g id="Layer_2" data-name="Layer 2"><g id="Layer_1-2" data-name="Layer 1"><circle class="cls-1" cx="17.98" cy="17.98" r="17.98"/><path class="cls-2" d="M24,16.66H8.75a1.32,1.32,0,0,0,0,2.64H24L22.33,21a1.32,1.32,0,1,0,1.86,1.86l4-3.95.09-.1,0,0,.06-.07v0a.35.35,0,0,0,.05-.08v0l.05-.1h0a.76.76,0,0,0,0-.11v0l0-.11v0s0-.06,0-.1a.53.53,0,0,0,0-.13.57.57,0,0,0,0-.13s0-.06,0-.09v0l0-.11h0a.36.36,0,0,0,0-.11h0l-.05-.1v0a.41.41,0,0,0-.05-.09v0l-.06-.08,0,0-.09-.1-4-4a1.28,1.28,0,0,0-.93-.38,1.29,1.29,0,0,0-.93.38,1.32,1.32,0,0,0,0,1.87Z"/></g></g></svg>