<svg xmlns="http://www.w3.org/2000/svg" viewBox="0 0 14.83 14.83"><defs><style>.cls-1{fill:#00369e;}</style></defs><title>calender</title><g id="Layer_2" data-name="Layer 2"><g id="Layer_1-2" data-name="Layer 1"><path class="cls-1" d="M13.38,1.27H12V.87a.87.87,0,0,0-1.74,0v.4H5.4V.87a.87.87,0,0,0-1.74,0v.41H2.43A1.45,1.45,0,0,0,1,2.72V7.65a.29.29,0,0,0,.58,0V4.26H12a.29.29,0,1,0,0-.58H1.56v-1a.87.87,0,0,1,.87-.87H3.66v.38a.87.87,0,0,0,1.74,0V1.85h4.86v.37a.87.87,0,0,0,1.74,0V1.85h1.38a.87.87,0,0,1,.87.87v11a.53.53,0,0,1-1.05,0V13a.28.28,0,0,0-.28-.29H9.55a.29.29,0,1,0,0,.58h3.08v.46a1.06,1.06,0,0,0,.13.52H1.1a.52.52,0,0,1-.52-.52v-.46H7.06a.29.29,0,1,0,0-.58H4.17A2.38,2.38,0,0,0,2.62,8.51a2.38,2.38,0,0,0-1.55,4.18H.29A.29.29,0,0,0,0,13v.75a1.1,1.1,0,0,0,1.1,1.1H13.73a1.11,1.11,0,0,0,1.1-1.1v-11A1.45,1.45,0,0,0,13.38,1.27Zm-8.56,1a.29.29,0,0,1-.58,0V.87a.29.29,0,0,1,.58,0Zm6.6,0a.29.29,0,0,1-.58,0V.87a.29.29,0,0,1,.58,0ZM.82,10.89a1.8,1.8,0,1,1,1.8,1.79A1.81,1.81,0,0,1,.82,10.89Z"/><path class="cls-1" d="M13.56,3.76a.3.3,0,0,0-.2-.08.27.27,0,0,0-.29.29.3.3,0,0,0,.08.2.29.29,0,0,0,.21.09A.31.31,0,0,0,13.65,4,.29.29,0,0,0,13.56,3.76Z"/><path class="cls-1" d="M8.65,12.77a.32.32,0,0,0-.21-.08.3.3,0,0,0-.2.08.33.33,0,0,0-.09.21.31.31,0,0,0,.09.2.27.27,0,0,0,.2.09.29.29,0,0,0,.21-.09.3.3,0,0,0,.08-.2A.32.32,0,0,0,8.65,12.77Z"/><path class="cls-1" d="M6.55,8.8a1.1,1.1,0,1,0,1.1,1.1A1.1,1.1,0,0,0,6.55,8.8Zm0,1.63a.53.53,0,1,1,.52-.53A.52.52,0,0,1,6.55,10.43Z"/><path class="cls-1" d="M9.25,8.8a1.1,1.1,0,1,0,0,2.2,1.1,1.1,0,1,0,0-2.2Zm0,1.63a.53.53,0,1,1,.53-.53A.53.53,0,0,1,9.25,10.43Z"/><path class="cls-1" d="M12,8.8a1.1,1.1,0,1,0,1.1,1.1A1.1,1.1,0,0,0,12,8.8Zm0,1.63a.53.53,0,1,1,.52-.53A.53.53,0,0,1,12,10.43Z"/><path class="cls-1" d="M3.85,5.79A1.1,1.1,0,1,0,5,6.89,1.1,1.1,0,0,0,3.85,5.79Zm0,1.62a.52.52,0,1,1,.52-.52A.52.52,0,0,1,3.85,7.41Z"/><path class="cls-1" d="M9.25,5.79a1.1,1.1,0,1,0,0,2.2,1.1,1.1,0,0,0,0-2.2Zm0,1.62a.52.52,0,1,1,.53-.52A.52.52,0,0,1,9.25,7.41Z"/><path class="cls-1" d="M12,5.79a1.1,1.1,0,1,0,1.1,1.1A1.1,1.1,0,0,0,12,5.79Zm0,1.62a.52.52,0,0,1,0-1,.52.52,0,0,1,0,1Z"/><path class="cls-1" d="M6.55,5.79a1.1,1.1,0,1,0,1.1,1.1A1.1,1.1,0,0,0,6.55,5.79Zm0,1.62a.52.52,0,1,1,.52-.52A.52.52,0,0,1,6.55,7.41Z"/><path class="cls-1" d="M3.65,10.18a.3.3,0,0,0-.41,0l-.94,1L2,10.8a.3.3,0,0,0-.41,0,.28.28,0,0,0,0,.41l.52.53a.32.32,0,0,0,.21.08.28.28,0,0,0,.2-.08l1.15-1.15A.3.3,0,0,0,3.65,10.18Z"/></g></g></svg>