<svg xmlns="http://www.w3.org/2000/svg" viewBox="0 0 7.62 7.47"><defs><style>.cls-1{fill:#4d5c77;}</style></defs><title>direction--arrow</title><g id="Layer_2" data-name="Layer 2"><g id="Layer_1-2" data-name="Layer 1"><path class="cls-1" d="M6,1.43H.48a.48.48,0,1,0,0,1H6L5.37,3a.48.48,0,0,0,0,.67.5.5,0,0,0,.68,0L7.48,2.24l0,0h0l0,0h0l0,0h0l0,0h0s0,0,0,0h0s0,0,0,0h0V2a.43.43,0,0,0,0-.05s0,0,0,0v0h0a.06.06,0,0,1,0,0h0s0,0,0,0h0l0,0h0l0,0h0l0,0h0l0,0L6.05.14A.49.49,0,0,0,5.71,0a.51.51,0,0,0-.34.14.48.48,0,0,0,0,.67Z"/><path class="cls-1" d="M1.63,5.09H7.14a.48.48,0,0,1,.48.47A.49.49,0,0,1,7.14,6H1.63l.61.61a.48.48,0,0,1,0,.68.48.48,0,0,1-.67,0L.14,5.9l0,0h0l0,0h0l0,0h0s0,0,0,0H0v0H0s0,0,0,0V5.48H0s0,0,0,0H0s0,0,0,0H0s0,0,0,0h0l0,0h0l0,0h0l0,0L1.57,3.8a.43.43,0,0,1,.33-.14.44.44,0,0,1,.34.14.46.46,0,0,1,0,.67Z"/></g></g></svg>