<svg xmlns="http://www.w3.org/2000/svg" viewBox="0 0 38.45 38.45"><defs><style>.cls-1{fill:#dc4e41;}.cls-2{fill:#fff;}</style></defs><title>google-plus</title><g id="Layer_2" data-name="Layer 2"><g id="Layer_1-2" data-name="Layer 1"><circle class="cls-1" cx="19.23" cy="19.23" r="19.23"/><path class="cls-1" d="M6.69,20.09A7.92,7.92,0,0,0,12,27.58a7.83,7.83,0,0,0,8.55-2.28A9,9,0,0,0,22.19,19c-2.53,0-5.06,0-7.58,0v2.7c1.52,0,3,0,4.55.05a4.44,4.44,0,0,1-2.58,3,5,5,0,1,1-3.37-9.43,5.6,5.6,0,0,1,4.69.92c.7-.66,1.36-1.36,2-2.07a8,8,0,0,0-5.7-2A7.89,7.89,0,0,0,6.69,20.09Z"/><path class="cls-1" d="M27.11,16.68c0,.75,0,1.51,0,2.26l-2.26,0v2.26h2.26c0,.75,0,1.51,0,2.26h2.25c0-.75,0-1.51,0-2.26h2.26V19H29.38c0-.76,0-1.52,0-2.27Z"/><path class="cls-2" d="M6.69,20.09a8,8,0,0,1,13.21-6c-.64.71-1.3,1.41-2,2.07a5.57,5.57,0,0,0-4.68-.92,5,5,0,1,0,3.37,9.43,4.44,4.44,0,0,0,2.58-3c-1.52,0-3,0-4.55-.05V19c2.52,0,5.05,0,7.58,0a9,9,0,0,1-1.6,6.34A7.83,7.83,0,0,1,12,27.58,7.92,7.92,0,0,1,6.69,20.09Z"/><path class="cls-2" d="M27.11,16.68h2.25c0,.75,0,1.51,0,2.26l2.26,0v2.26H29.38c0,.75,0,1.51,0,2.26H27.11c0-.75,0-1.51,0-2.26H24.83V19l2.26,0C27.1,18.19,27.1,17.43,27.11,16.68Z"/></g></g></svg>