<svg xmlns="http://www.w3.org/2000/svg" xmlns:xlink="http://www.w3.org/1999/xlink" viewBox="0 0 16.3 16"><defs><style>.cls-1{fill:url(#linear-gradient);}.cls-2{fill:url(#linear-gradient-2);}</style><linearGradient id="linear-gradient" y1="8" x2="16.3" y2="8" gradientUnits="userSpaceOnUse"><stop offset="0" stop-color="#00369e"/><stop offset="1" stop-color="#4987ea"/></linearGradient><linearGradient id="linear-gradient-2" x1="5.63" y1="9.19" x2="12.74" y2="9.19" xlink:href="#linear-gradient"/></defs><title>offer-ride-a</title><g id="Layer_2" data-name="Layer 2"><g id="Layer_1-2" data-name="Layer 1"><path class="cls-1" d="M14.52,2.37V0H0V13.93H2.07V16H16.3V2.37ZM.59,13.33V.59H13.93V2.37H2.07v11ZM15.7,15.41h-13V3h13Z"/><path class="cls-2" d="M12.44,8.89h-3v-3a.3.3,0,1,0-.59,0v3h-3a.3.3,0,1,0,0,.59h3v3a.3.3,0,1,0,.59,0v-3h3a.3.3,0,1,0,0-.59Z"/></g></g></svg>