<svg xmlns="http://www.w3.org/2000/svg" viewBox="0 0 7.68 15.12"><defs><style>.cls-1{fill:#00369e;}</style></defs><title>password</title><g id="Layer_2" data-name="Layer 2"><g id="Layer_1-2" data-name="Layer 1"><path class="cls-1" d="M2.66,7.49V9.78a.3.3,0,0,0,.59,0V7.63a3.81,3.81,0,0,0,.59,0,3.81,3.81,0,0,0,.59,0v3.48a.29.29,0,0,0,.3.29H5.91V12H4.73a.3.3,0,0,0-.3.3.29.29,0,0,0,.3.29H5.91v.59H4.73a.3.3,0,0,0-.3.3v1.06H3.25V12.44a.3.3,0,1,0-.59,0v2.39a.29.29,0,0,0,.29.29H4.73A.29.29,0,0,0,5,14.83V13.77H6.2a.3.3,0,0,0,.3-.3V11.11a.29.29,0,0,0-.3-.3H5v-.59H6.2a.3.3,0,1,0,0-.59H5V7.49a3.84,3.84,0,1,0-2.36,0ZM3.84.59A3.25,3.25,0,1,1,.59,3.84,3.26,3.26,0,0,1,3.84.59Z"/><path class="cls-1" d="M3.84,6.5A2.66,2.66,0,1,0,1.18,3.84,2.66,2.66,0,0,0,3.84,6.5Zm0-4.73A2.07,2.07,0,1,1,1.77,3.84,2.07,2.07,0,0,1,3.84,1.77Z"/><path class="cls-1" d="M3.84,4.14H5a.3.3,0,1,0,0-.6H4.14V2.66a.3.3,0,1,0-.6,0V3.84A.31.31,0,0,0,3.84,4.14Z"/><path class="cls-1" d="M3.25,11.11a.3.3,0,1,1-.3-.3A.29.29,0,0,1,3.25,11.11Z"/></g></g></svg>