<svg xmlns="http://www.w3.org/2000/svg" viewBox="0 0 15.84 15.84"><defs><style>.cls-1{fill:#d8d8d8;}</style></defs><title>profile</title><g id="Layer_2" data-name="Layer 2"><g id="Layer_1-2" data-name="Layer 1"><path class="cls-1" d="M13.52,2.32a7.92,7.92,0,0,0-11.2,0A7.82,7.82,0,0,0,.18,6.25a8,8,0,0,0,.29,4.36.32.32,0,0,0,.61-.22,7.28,7.28,0,0,1,1.7-7.62A7.28,7.28,0,0,1,15.2,7.83a7.22,7.22,0,0,1-2,5.1l0,.05a.6.6,0,0,0-.08.08,7.28,7.28,0,0,1-10.29,0l0,0v-.29s0,0,0-.06v-.13a.17.17,0,0,0,0-.07s0-.08,0-.12,0,0,0-.08,0-.07,0-.11,0-.05,0-.08,0-.07,0-.11,0-.05,0-.08l0-.1s0-.06,0-.08l0-.1s0-.06,0-.09l0-.1,0-.08,0-.09,0-.08,0-.1,0-.08a.36.36,0,0,0,0-.09.2.2,0,0,1,0-.08.36.36,0,0,1,0-.09l0-.08,0-.09,0-.08a.35.35,0,0,1,.05-.08.3.3,0,0,1,0-.08.56.56,0,0,1,0-.08l0-.08.06-.08a.18.18,0,0,1,0-.07l.05-.09,0-.06.06-.08.06-.07.06-.08,0-.06L4,9.49l.06-.06.07-.08,0-.06.08-.07.06-.06.08-.07L4.49,9,4.57,9l.06-.05.09-.07.06,0,.09-.07.06-.05L5,8.61l.06,0,.14-.09h0l.16-.1.06,0,.11-.06.08,0,.09,0a3.12,3.12,0,0,0,4.34,0,5.24,5.24,0,0,1,2.58,2.63.34.34,0,0,0,.43.17.32.32,0,0,0,.16-.43,5.72,5.72,0,0,0-2.74-2.87,3.11,3.11,0,0,0,.55-1.77A3.15,3.15,0,0,0,7.92,2.79a.32.32,0,0,0-.32.32.32.32,0,0,0,.32.33,2.51,2.51,0,0,1,2.51,2.5,2.47,2.47,0,0,1-.65,1.67h0a2.5,2.5,0,0,1-3.72,0h0a2.51,2.51,0,0,1-.64-1.67,2.48,2.48,0,0,1,.74-1.78.32.32,0,0,0,0-.46.33.33,0,0,0-.45,0,3.13,3.13,0,0,0-.39,4h0l-.08,0-.11.06L5,7.85l-.11.06L4.85,8,4.75,8l-.07.05-.1.06L4.5,8.2l-.09.07-.08.05-.08.07-.08.07a.27.27,0,0,0-.08.07L4,8.59l-.08.08-.07.06-.08.08-.07.07L3.64,9,3.57,9l-.07.09-.06.07-.08.09,0,.07-.08.1,0,.06-.1.14,0,0A1.63,1.63,0,0,0,3,9.85l0,.06L2.85,10l0,.07-.06.11,0,.08,0,.1,0,.09-.05.1,0,.09s0,.07,0,.1l0,.09s0,.07,0,.11l0,.09,0,.11,0,.09,0,.11,0,.09,0,.11a.29.29,0,0,1,0,.09s0,.08,0,.12,0,.06,0,.09,0,.08,0,.12,0,.06,0,.09,0,.08,0,.12,0,.06,0,.09,0,.08,0,.12,0,.06,0,.09,0,.09,0,.14v.07c0,.07,0,.15,0,.22s0,.15,0,.23a.13.13,0,0,0,0,.06h0a.43.43,0,0,0,0,0h0a.08.08,0,0,0,0,0h0l0,0h0l0,.05.1.1a7.92,7.92,0,0,0,11.2,0,.94.94,0,0,0,.1-.1l0-.05a7.91,7.91,0,0,0-.14-11Z"/></g></g></svg>