<svg xmlns="http://www.w3.org/2000/svg" viewBox="0 0 31.32 12.53"><defs><style>.cls-1{fill:#d8d8d8;}</style></defs><title>ride</title><g id="Layer_2" data-name="Layer 2"><g id="Layer_1-2" data-name="Layer 1"><g id="surface1"><path class="cls-1" d="M18.27,4.7H16.18v1h2.09Z"/><path class="cls-1" d="M.45,3.14,4,2.63A17.91,17.91,0,0,1,13.27,0h.62a17.66,17.66,0,0,1,8.47,2.16l1.79,1a12.36,12.36,0,0,1,6,1.61,2.4,2.4,0,0,1,1.2,2.07v3.1a.52.52,0,0,1-.52.52H29a3.12,3.12,0,0,1-5.89,0H9.21a3.12,3.12,0,0,1-5.89,0H3.13a.43.43,0,0,1-.19,0L1.25,9.72A2,2,0,0,1,0,7.88V3.65A.51.51,0,0,1,.45,3.14Zm23.6,6.67a2.1,2.1,0,1,0,0-.41A1.84,1.84,0,0,0,24.05,9.81ZM14.62,9.4H23a3.13,3.13,0,1,1,6.26,0h1V6.82a1.33,1.33,0,0,0-.67-1.16A11.29,11.29,0,0,0,24,4.18H14.62Zm0-6.27H22l-.1,0a16.58,16.58,0,0,0-7.24-2ZM13.57,1h-.29A16.61,16.61,0,0,0,7.13,2.22l.92.91h5.52ZM4.22,9.81a2.1,2.1,0,1,0,0-.41A1.84,1.84,0,0,0,4.22,9.81ZM1,4.7H2.61v1H1V7.88a.94.94,0,0,0,.59.87l1.5.61s0-.1,0-.15,0-.1,0-.16a.77.77,0,0,0,0-.15c0-.05,0-.11,0-.15s0-.1,0-.15a.83.83,0,0,1,0-.15.58.58,0,0,1,.05-.14l0-.15L3.45,8l.07-.14.07-.12a1,1,0,0,1,.08-.14l.09-.11.09-.13.1-.1.11-.11.1-.1L4.28,7l.12-.09.12-.09.13-.08.12-.07.15-.07.13-.06.15-.06.13,0,.19,0a.45.45,0,0,1,.11,0l.2,0,.11,0,.32,0A3.13,3.13,0,0,1,9.39,9.39h4.18V4.18H7.83A.52.52,0,0,1,7.46,4L6.11,2.67a17.74,17.74,0,0,0-1.66.9.5.5,0,0,1-.2.08L1,4.11Z"/></g></g></g></svg>