<svg xmlns="http://www.w3.org/2000/svg" viewBox="0 0 38.46 38.46"><defs><style>.cls-1{fill:#55acee;}.cls-2{fill:#f1f2f2;}</style></defs><title>twitter</title><g id="Layer_2" data-name="Layer 2"><g id="Layer_1-2" data-name="Layer 1"><circle class="cls-1" cx="19.23" cy="19.23" r="19.23"/><path class="cls-2" d="M31,13.82a9.47,9.47,0,0,1-2.64.72,4.69,4.69,0,0,0,2-2.54,9.06,9.06,0,0,1-2.92,1.11,4.6,4.6,0,0,0-7.83,4.2,13.07,13.07,0,0,1-9.48-4.81,4.61,4.61,0,0,0,1.42,6.14,4.47,4.47,0,0,1-2.08-.58v.06a4.6,4.6,0,0,0,3.69,4.51,4.84,4.84,0,0,1-1.21.16,5,5,0,0,1-.87-.08,4.63,4.63,0,0,0,4.3,3.19,9.27,9.27,0,0,1-5.71,2,8,8,0,0,1-1.1-.07,13.06,13.06,0,0,0,20.12-11c0-.2,0-.4,0-.59A9.46,9.46,0,0,0,31,13.82Z"/></g></g></svg>