<?xml version="1.0" encoding="utf-8"?>
<!-- Generator: Adobe Illustrator 23.0.2, SVG Export Plug-In . SVG Version: 6.00 Build 0)  -->
<svg version="1.1" id="Layer_1" xmlns="http://www.w3.org/2000/svg" xmlns:xlink="http://www.w3.org/1999/xlink" x="0px" y="0px"
	 viewBox="0 0 301.3 180.2" style="enable-background:new 0 0 301.3 180.2;" xml:space="preserve">
<style type="text/css">
	.st0{fill:#FFC89F;}
	.st1{fill:#1C1C1F;}
	.st2{fill:#17283D;}
	.st3{fill:#15202E;}
	.st4{fill:#D4A47D;}
	.st5{opacity:0.3;fill:#A88F7B;}
	.st6{fill:#FFFFFF;}
	.st7{fill:#E0E0E0;}
	.st8{fill:#F0B990;}
	.st9{fill:#2B1E16;}
	.st10{fill:#83C8FC;}
	.st11{fill:#2278BA;}
	.st12{fill:#26252E;}
	.st13{opacity:0.3;fill:#242130;}
	.st14{fill:#62B2F0;}
	.st15{opacity:0.3;}
	.st16{fill:#242130;}
	.st17{fill:#CCCCCC;}
	.st18{fill:#B05223;}
	.st19{fill:#85B53C;}
	.st20{fill:#FF4140;}
</style>
<g>
	<g>
		<path class="st0" d="M222.9,49.8l1.7-5.5c3.5,0.9,16.5,3.7,16.8,3.8l3.7,3.1c0.2,1.6,0.6,4-0.6,5.1
			C242.4,58.3,226.9,52.6,222.9,49.8z"/>
		<path class="st0" d="M250,53.1c-1.1-1.1-1.6-2.6-2-4.1c-0.3-1.4-0.8-2.5-1.6-3.7c-0.2-0.3-0.4-0.7-0.6-1c-2.2,1.4-5,2.9-8.5,4.5
			c-1.1,0.5,0.6,6.4,1.2,6.5c1.9,0.3,4,1.6,5.3,1.4c2.4-0.4,2.8-0.9,6.4-2.6c0.2-0.1,0.3-0.2,0.4-0.4
			C250.4,53.4,250.2,53.3,250,53.1z"/>
		<g>
			<path class="st1" d="M271.6,166.9c0.3-0.8,0.4-1.7,0.3-2.7c-0.3-1.4-1.1-2.2-1.8-3.4c-0.3-0.4-0.5-0.8-1-1c-0.1,0-0.1,0-0.2-0.1
				c-0.1,0-0.3,0-0.4,0c-1.3-0.1-2.6,0-3.8,0.4c-1.5,0.5-1.6,0.1-3.1,0.7c-0.5,0.2-4.3,3.6-4.6,3.9c-0.6,0.5-1.2,1-1.8,1.4
				c-1,0.7-2,1.3-2.9,2.1c-1.3,1.1-2.6,3.2-0.4,4c0.4,0.1,0.8,0.2,1.2,0.2c1.9,0.2,4.3-0.4,5.9-0.8c2.2-0.5,4-1.8,5.8-3.1
				C266.6,167,270.9,168.5,271.6,166.9z"/>
			<path class="st1" d="M288.5,166.9c0.3-0.8,0.4-1.7,0.3-2.7c-0.3-1.4-1.1-2.2-1.8-3.4c-0.3-0.4-0.5-0.8-1-1c-0.1,0-0.1,0-0.2-0.1
				c-0.1,0-0.3,0-0.4,0c-1.3-0.1-2.6,0-3.8,0.4c-1.5,0.5-1.6,0.1-3.1,0.7c-0.5,0.2-4.3,3.6-4.6,3.9c-0.6,0.5-1.2,1-1.8,1.4
				c-1,0.7-2,1.3-2.9,2.1c-1.3,1.1-2.6,3.2-0.3,4c0.4,0.1,0.8,0.2,1.2,0.2c1.9,0.2,4.3-0.4,5.9-0.8c2.2-0.5,4-1.8,5.8-3.1
				C283.5,167,287.8,168.5,288.5,166.9z"/>
			<path class="st2" d="M260,93.9l-4.8,31.2l3.1,38.3l14.3,0.2l-3.1-38.5c0,0,1.9-7.9,2.9-11.6c0.8-3,1.5-6.1,1.9-9.2
				c0.3-2.1,1.5-8.8,4-10.4H260z"/>
			<path class="st2" d="M271.5,93.7c1.5,5.6,0.2,33.7,0.2,33.7l2,36.4l14.5-0.1l0.6-38.4c0,0,2.1-17.4,2.8-31.3
				C291.6,93.9,271.4,93.5,271.5,93.7z"/>
			<path class="st3" d="M271.5,93.7c0,0.1,0,0.1,0,0.2H260l-0.5,4.2c0,0,21.1-0.3,23.3,3.3c2.2,4.1,2.8,48.2,2.6,51.3
				c-0.2,3-1,6.4-3.4,8.4c-1,0.8-2.2,1.4-3.5,1.6c-0.8,0.1-2.3,0.1-2.5,1l12.2-0.1l0.6-38.4c0,0,2.1-17.4,2.8-31.3
				C291.6,93.9,271.4,93.5,271.5,93.7z"/>
			<g>
				<g>
					<polygon class="st0" points="300.5,60 301,75.5 298.8,97.5 293.6,95.3 293.5,74.7 290.2,61.6 					"/>
				</g>
				<g>
					<path class="st4" d="M294.5,102.1l0.1-1.8c0,0,0-0.1-0.1-0.4c0-0.2,0-0.5,0-0.8c0.2,0,0.5-0.1,0.8-0.3c0.5-0.3,0.9-0.9,1.3-1.2
						c0.1-0.1,0.2-0.2,0.3-0.3c0.1-0.1,0.2-0.1,0.3-0.2c0.3,0.5,0.6,1,0.9,1.5c0.1,0.1,0.2,0.3,0.3,0.4l-0.7,0.9
						c-0.1,1.2-0.4,4-0.4,4l-1.5,2.5c0,0-0.6,2.3-1.1,2.5c-0.1,0-0.3,0-0.6-0.4c-0.3-0.5-0.5-1.3-0.3-1.8c0.2-0.6,0.8-1.9,0.8-1.9
						L294.5,102.1z"/>
				</g>
				<g>
					<path class="st0" d="M292.2,104.7c-0.4,0-0.8-0.4-0.8-1c0-0.5,0-1.3,0-1.3l0,0l0-2c0.2-0.3,1.9-5.3,1.9-5.3l1.1-2.2l3.2,0.4
						c0,0.1,0.2,4.4-1,5.1c-1.3,0.7-3.4,2.8-3.4,2.8s-0.1,1.3-0.1,1.7C293.1,104.3,292.6,104.7,292.2,104.7z"/>
				</g>
				<path class="st0" d="M296.2,93.3l1,0.8l1.3,1.3l1.6,6.2l-2.4,4.8c0,0-2.8,2.4-2.8,2.4c-0.2,0.2-0.6,0.2-0.8,0
					c-0.2-0.2-0.2-0.5,0-0.8c0,0,2.7-4,2.7-4s0.8-5.6-1.3-5C294.2,99.4,296.2,93.4,296.2,93.3z"/>
			</g>
			<path class="st4" d="M285.5,32.4c-0.4-0.3-0.8-0.6-1.2-1c-0.2-0.1-1.1-0.8-0.5-0.4c-0.8-0.6-1.7-1.5-2-2.4c0-0.1-2.6-1.4-3-1.7
				v-6.9h-9.9v8.4c-0.8,0.5-6.3,2.3-8.6,2.9c-0.1,0.3,5.7-0.3,6.4,0.1c0.5,0.3,0.9,0.8,0.8,1.4c0,0,0,0.1,0,0.1c0,0.1,0,0.2,0,0.2
				c0.9,0.4,1.8,0.9,2.5,1.6c0.5-0.2,2.6,6.8,3.1,6.7c1.6-0.4,1.8-7.6,3.5-7.4c1,0.1,2,0.3,3,0.4c-0.3,0,0.6,0.1,0.7,0.1
				c0.4,0,0.7,0.1,1.1,0.1c0.2,0,0.4,0,0.5,0c0.1,0,0.4-0.1,0.5-0.1c0.1-0.1,0.6-0.2,0.5-0.2c0.1-0.1,0.2-0.1,0.3-0.2
				c0.2-0.1,0.5-0.3,0.7-0.5c0.1-0.1,0.4-0.3,0.4-0.4C284.8,33.1,285.1,32.8,285.5,32.4C285.4,32.4,285.3,32.3,285.5,32.4
				C285.5,32.4,285.5,32.4,285.5,32.4z"/>
			<path class="st5" d="M285.5,32.4C285.5,32.4,285.5,32.4,285.5,32.4c-0.4-0.3-0.8-0.6-1.2-1c-0.2-0.1-1.1-0.8-0.5-0.4
				c-0.8-0.6-1.7-1.5-2-2.4c0-0.1-2.6-1.4-3-1.7v-6.9h-9.9v8.1c5.4,2,10.7,5.2,16.3,4.5C285.3,32.6,285.4,32.5,285.5,32.4
				C285.4,32.4,285.3,32.3,285.5,32.4z"/>
			<path class="st6" d="M288.7,65.8c0.8,9.1,3,28.1,3,28.1h-33.5c0,0,0-0.1,0-0.2c0,0,0-0.1,0-0.1c0,0,0,0,0,0c0,0,0-0.1,0-0.1
				c0-0.1,0-0.2,0-0.4c0-0.1,0-0.1,0-0.2v0c0-0.1,0-0.1,0-0.2c0,0,0-0.1,0-0.1c0-0.1,0-0.2,0-0.3c0,0,0-0.1,0-0.1c0-0.1,0-0.2,0-0.3
				c0-0.1,0-0.2,0-0.3c0,0,0-0.1,0-0.1c0,0,0-0.1,0-0.1c0-0.2,0-0.5,0-0.8c0-0.1,0-0.2,0-0.2c0-0.1,0-0.1,0-0.2c0,0,0,0,0,0
				c0-0.1,0-0.3,0-0.4c0-0.1,0-0.3,0-0.4c0.6-11.4,2.1-39.6,2.1-41.6l-10,7.7L242,44.5l18.4-13.1c0,0,2.2-1,6.4-2
				c0.1-0.2,1.5,3,1.8,3.4c1.2,1.6,3.4,2,5.3,1.2c1.3-0.5,2.4-1.4,3.2-2.5c0,0,0,0,0,0c0.4-0.6,0.8-1.2,1.1-1.8
				c0.3-0.7,1-1.7,1.1-2.5v0c0,0,14.6,6.3,15.2,6.9c2.8,3.3,6.9,27.2,6.9,27.2l-11.2,3.3l-2.8-14.9C287.3,52,288.2,60.5,288.7,65.8z
				"/>
			<path class="st7" d="M288.7,65.8c0.8,9.1,3,28.1,3,28.1h-33.5c0,0,0-0.1,0-0.2c0,0,0-0.1,0-0.1c0,0,0,0,0,0c0,0,0-0.1,0-0.1
				c0-0.1,0-0.2,0-0.4c0-0.1,0-0.1,0-0.2v0c0-0.1,0-0.1,0-0.2c0,0,0-0.1,0-0.1c0-0.1,0-0.2,0-0.3c0,0,0-0.1,0-0.1c0-0.1,0-0.2,0-0.3
				c0-0.1,0-0.2,0-0.3c0,0,0-0.1,0-0.1c0,0,0-0.1,0-0.1c0-0.2,0-0.5,0-0.8c0-0.1,0-0.2,0-0.2c0-0.1,0-0.1,0-0.2c0,0,0,0,0,0
				c0-0.1,0-0.3,0-0.4c0-0.1,0-0.3,0-0.4c2.8-0.3,5.7-0.8,8.5-1.4c5-0.9,10.3,1.1,14.8-1.1c2.7-1.3,3.1-4.7,3.1-7.2
				c0.5-7.7-1.1-15.7-1.1-23.4c0-3.1-1.4-6.3,0.7-9c1.1-1.4,1.7-4.1,2.6-5.5c2.5-4.5-9.8-9.9-10-10.1c0,0,0,0,0,0
				c0.4-0.6,0.8-1.2,1.1-1.8c0.3-0.7,1-1.7,1.1-2.5v0c0,0,14.6,6.3,15.2,6.9c2.8,3.3,6.9,27.2,6.9,27.2l-11.2,3.3l-2.8-14.9
				C287.3,52,288.2,60.5,288.7,65.8z"/>
			<path class="st0" d="M280.1,17.5c0-0.1-0.1-0.3-0.2-0.3c0-0.4,0.1-0.8,0.1-1.3c0.2-5.9,0.4-12.1-8.2-12.8
				c-10.2-0.8-9.1,11.1-9.1,11.2c0,1.5,0.3,5.9,0.8,7.6c0.6,2.3,1.5,5.1,3.7,6.4c0.4,0.2,1.1,0.2,1.2,0.2c3.7-0.1,7.9-3.3,8.3-3.5
				C279.2,23.6,280.2,20.1,280.1,17.5z"/>
			<path class="st0" d="M280.1,17.5c0-0.1-0.1-0.3-0.2-0.3c0-0.4,0.1-0.8,0.1-1.3c0.2-5.9,0.4-12.1-8.2-12.8
				c-10.2-0.8-9.1,11.1-9.1,11.2c0,1.5,0.3,5.9,0.8,7.6c0.6,2.3,1.5,5.1,3.7,6.4c0.4,0.2,1.1,0.2,1.2,0.2c3.7-0.1,7.9-3.3,8.3-3.5
				C279.2,23.6,280.2,20.1,280.1,17.5z"/>
			<path class="st8" d="M280.1,17.5c0-0.1-0.1-0.3-0.2-0.3c0-0.4,0.1-0.8,0.1-1.3c0.2-5.9,0.4-12.1-8.2-12.8c-4.7-0.4-7,1.9-8.1,4.5
				c3.1-0.1,6,1.5,8.8,3c1.4,0.7,1.6,2.9,0.9,4.1c-0.9,1.6-2.5,3.1-1.1,4.7c0.5,0.9,1.6,1.4,2,2.2c1.3,3.8-4,4.3-6.8,5
				c-0.5,0.1-1.3,0-1.7,0.4c0.4,0.5,0.9,0.9,1.4,1.2c0.4,0.2,1.1,0.2,1.2,0.2c3.7-0.1,7.9-3.3,8.3-3.5
				C279.2,23.6,280.2,20.1,280.1,17.5z"/>
			<path class="st9" d="M283.7,7.8c-0.5-2.2-1-4.4-2.9-5.9c-1.8-1.3-3.8-1.6-6-1.8c-2.5-0.3-5.3-0.2-7.5,1.2c-1.8,1-3.7,2.8-4.5,4.7
				c-0.2,0.5-0.4,1-0.4,1.6c0,0.4-0.1,1,0.1,1.3c0.3,0.4,0.8,0.4,1.2,0.5c0.6,0.3,1.3,0.4,2,0.5c2.7,0.4,4.9-1.3,7.2-2.2
				c0.5-0.2,2.3-0.9,2.2,0.3c-0.1,1.1-1,2.1-0.9,3.2c0.1,0.9,0.9,1.3,1.7,1.6c0.7,0.5,0.8,2,0.7,2.7c-0.1,0.8-0.5,1.6-0.5,2.4
				c0,0.8,0.8,1.5,1.5,0.9c0.5-0.5,0.9-1.3,1.2-1.9c0.2-0.4,0.3-0.9,0.6-1.1c0.4-0.3,0.8-0.4,1.3-0.5c-0.6,1-1.2,2-1.8,3
				c-0.4,0.7,0.7,1.1,1.1,0.6c-0.4,0.9-0.8,1.8-1.2,2.7c-0.2,0.5,0,1.5,0.7,1c1.4-1,2.2-2.5,3-4c0.4-0.8,0.7-1.6,0.9-2.5
				c0.2-0.9,0.2-1.9,0.4-2.8c0.1-0.3,0.3-0.6,0.3-0.8c0-0.5,0-1.1,0-1.6C284.1,9.9,283.9,8.9,283.7,7.8z M282.1,17.1
				c0.1-0.2,0.2-0.7,0.3-1C282.3,16.4,282.2,16.7,282.1,17.1z"/>
			<g>
				<path class="st0" d="M278.7,16c-0.9,1.4-1,2.9-0.2,3.4c0.8,0.5,2.1-0.2,3-1.6c0.9-1.4,1-2.9,0.2-3.4C281,14,279.6,14.7,278.7,16
					z"/>
			</g>
		</g>
		<path class="st3" d="M270.9,115c-1.8,1.8-3.2,3.8-4,6.3c-2.3,7.7-0.4,15.1,0.9,22.9c0.7,4.9,1.1,10.8-3.1,14
			c-1.7,1.4-4.5,1.2-6.8-0.1l0.3,5.4l14.3,0.2l-3.1-38.5c0,0,1.4-5.8,2.4-9.8c0-0.1,0-0.2,0.1-0.3
			C272.1,114.1,271.2,114.8,270.9,115z"/>
	</g>
	<path class="st3" d="M11.3,164.2c-0.2,0.3-0.4,2.6-0.6,3.2c-0.2,1.1-1.9,2.5-2.1,2.5c-0.7,0.4-1.5,0.3-2.2-0.4
		c-0.5-0.6-0.9-5.1-0.8-6c-1.4,1.6-2.6,11.3,0.6,11.7C13.2,176,11.4,163.9,11.3,164.2z"/>
	<g>
		<path class="st3" d="M42.8,167.9c-1.1,1.6-8.5-0.5-9.1-1c-1.9-1.6-5.6-3.8-5.7-3.7c0,0,0,0,0,0c0,0-0.1,0-0.1,0.1
			c-0.5,1.7-1.5,3.3-1.5,5.2c0,0.8,0.1,2.2,1,2.6c1.5,1.1,6.2,0.2,6.7,0.3c0.8,0.6,5.8,1.9,8.8,1.7c0.9-0.1,1.9-0.6,2.3-1.4
			C45.4,171.3,46.7,169.2,42.8,167.9z"/>
	</g>
	<g>
		<path class="st0" d="M44.4,73.8c0-0.1-0.5-3.4-1.1-4.9c-0.1-0.7-0.1-1.5-0.2-2.2c-0.1-1,0-6,0-7.1c0.1-1.9,0-3.9-0.3-5.8
			c0-0.1-0.1-3.9-0.6-5.7c-0.3-0.9-0.6-1.9-1.1-2.8c0-0.1-0.1-0.1-0.1-0.2c-0.5-0.9-1.1-1.8-1.9-2.5c-1.5-1.3-3.8-2.4-5.9-2.2
			c-1.2,0.1-1.3,2-0.1,2.1c0.9,0.1,1.8,0.1,2.7,0.4c0.5,0.1,1,0.3,1.4,0.6c0,0,0,0-0.1,0.1c-0.3,0.3-0.4,0.9-0.6,1.3
			c-0.4,1.3-1.2,2.8-2.6,3.2c0,0,0,0-0.1,0c-0.5,0.9-0.8,1.7-1.1,2.7c-0.5,1.9,2.6,2.1,2.6,2.1c0.2,1.3,1.4,9.1,1.6,10.4
			c0.2,1.3,0.4,2.7,0.5,4.1c0.1,1.1,0.2,3.8,0.2,4.1c0,0.7,0.5,2.8,0.9,4.1l1.9,12.2L44,88c0,0,0.7-11.6,0.7-12
			C44.7,75.3,44.6,74.5,44.4,73.8z"/>
		<path class="st8" d="M42.8,53.8c0-0.1-0.1-3.9-0.6-5.7c-0.3-0.9-0.6-1.9-1.1-2.8c0-0.1-0.1-0.1-0.1-0.2c-0.5-0.9-1.1-1.8-1.9-2.5
			c-1.5-1.3-3.8-2.4-5.9-2.2c-1.2,0.1-1.3,2-0.1,2.1c0.9,0.1,1.8,0.1,2.7,0.4c0.5,0.1,1,0.3,1.4,0.6c0,0,0,0-0.1,0.1
			c-0.3,0.3-0.4,0.9-0.6,1.3c-0.4,1.3-1.2,2.8-2.6,3.2c0,0,0,0-0.1,0c-0.5,0.9-0.8,1.7-1.1,2.7c-0.5,1.9,2.6,2.1,2.6,2.1
			c0.2,1,0.9,5.8,1.3,8.6c2.1-0.3,4.2-0.8,6.2-1.2c0-0.3,0-0.6,0-0.7C43.2,57.6,43.2,55.7,42.8,53.8z"/>
		<path class="st0" d="M43.3,68.9c-0.1-0.7-0.1-1.5-0.2-2.2c-0.1-0.8-0.1-4.6,0-6.4c-2,0.5-4.1,0.9-6.2,1.2c0.1,0.8,0.2,1.5,0.3,1.8
			c0.2,1.3,0.4,2.7,0.5,4.1c0.1,1.1,0.2,3.8,0.2,4.1c0,0.7,0.5,2.8,0.9,4.1l1.9,12.2L44,88c0,0,0.7-11.6,0.7-12c0-0.8,0-1.5-0.2-2.3
			C44.4,73.7,43.9,70.4,43.3,68.9z"/>
		<g>
			<path class="st4" d="M41.7,93l-0.1-1.3c0,0,0-0.1-0.1-0.2c0-0.2,0-0.4-0.1-0.6c0.2,0,0.3-0.1,0.5-0.3c0.3-0.3,0.6-0.7,0.8-1
				c0.1-0.1,0.1-0.2,0.2-0.3c0.1,0,0.1-0.1,0.2-0.2c0.3,0.3,0.5,0.6,0.8,1c0.1,0.1,0.1,0.2,0.2,0.3l-0.4,0.7c0,0.9,0,2.9,0,2.9
				l-0.9,1.9c0,0-0.2,1.7-0.6,1.9c-0.1,0-0.2,0-0.4-0.2c-0.2-0.3-0.5-0.8-0.4-1.2c0.1-0.4,0.4-1.4,0.4-1.4L41.7,93z"/>
		</g>
		<g>
			<path class="st0" d="M40.3,95.1c-0.3,0-0.6-0.2-0.7-0.7c-0.1-0.3-0.1-0.9-0.1-0.9l0,0L39.3,92c0.1-0.3,1-3.9,1-3.9l0.6-1.6
				l2.3,0.1c0,0,0.5,3.1-0.3,3.7c-0.8,0.6-2.2,2.3-2.2,2.3s0,0.9,0.1,1.2C40.9,94.7,40.6,95,40.3,95.1z"/>
		</g>
		<path class="st0" d="M42.2,86.6l0.8,0.5l1,0.8l1.6,4.3l-1.3,3.6c0,0-1.8,1.9-1.8,2c-0.1,0.2-0.4,0.2-0.5,0.1
			c-0.2-0.1-0.2-0.4-0.1-0.5c0,0,1.6-3.1,1.6-3.1s0.2-4-1.3-3.4C41.3,91.2,42.2,86.7,42.2,86.6z"/>
	</g>
	<path class="st3" d="M32.1,58.3c0,0,0,2,0,2.1c1.9-0.3,9.8-1.5,11.9-1.9l-0.8-17.2c-0.2-3.3-3-5.9-6.3-5.7c-3.3,0.2-5.9,3-5.7,6.3
		L32.1,58.3z"/>
	<path class="st0" d="M5.6,54.5c-0.1,0-1.1-0.2-1.7-0.3L0.6,66.1c-0.9,2.6,0.5,5.4,3.1,6.2c2.6,0.9,3.7-1.5,4.5-4.1l4.9-12.1
		C13,56.1,8.4,54.9,5.6,54.5z"/>
	<path class="st8" d="M5.6,54.5c-0.1,0-1.1-0.2-1.7-0.3l-1.8,6.6c2.7,0.9,5.4,1.9,8.1,2.6l3-7.3C13,56.1,8.4,54.9,5.6,54.5z"/>
	<path class="st0" d="M11.1,120.7c-1.1,0.8-2.8,2.9-3.3,9.8c-0.1,1-0.3,4.8-0.4,5.7c-0.1,3.1-0.2,6.2-0.2,9.3c0,1,0,4.2,0,4.8
		c-0.1,0.9-0.1,1.9-0.2,2.8c-0.2,1.8-0.5,3.5-0.8,5.2c-0.3,0.6-0.4,1.2-0.5,1.6c-0.1,0.5-0.1,1.1,0,1.6c0,0.2-0.1,0.4-0.1,0.6
		c-0.1,0.7-0.3,1.4-0.4,2.2c-0.2,0.9-0.3,1.9,0,2.8c0.5,1.5,3.1,1.9,4.4,1.1c1.3-0.8,1.5-2.9,1.6-4.2c0-0.4,0-0.8,0-1.2
		c0-0.2,0-0.5,0.1-0.7c0.3-0.6,0.5-1.1,0.5-1.7c0-0.2-0.2-2.8-0.1-3.5c0.6-2.4,1.6-6.1,2.2-8.5c1.2-4.5,2.8-8.9,4.1-13.4
		c1.3-4.7,1.8-9.3,2-14H11.1z"/>
	<path class="st0" d="M34.5,160.5c-2.7-4.8,0.2-26.6,0.6-33.6c0.1-2,0.3-3.3,1.2-5.1H25.6c0,0,0,0.1,0,0.1c-0.8,3.3-2,6.7-2.1,10.1
		c-0.2,6.6,4.7,24.7,4.5,28.5l-0.2,5.2c0,0,4.2,1.7,4.6,1.5c0.4-0.1,6.3,1.4,10.7,0.7C39.8,166.4,36.9,164.7,34.5,160.5z"/>
	<path class="st8" d="M10.5,123.5c1,0.6,2.2,1.6,3.4,1.8c1.3,0.2,2.6,0.5,3.9,0.4c0.6,0,1.1,0,1.7-0.2c0.1,0,0.2-0.1,0.3-0.1
		c0.1-1.6,0.2-3.1,0.3-4.7h-8.9c-0.5,0.4-1.1,1-1.7,2.2C9.8,123.1,10.2,123.3,10.5,123.5z"/>
	<path class="st8" d="M28.2,125.7c0.9,0.4,1.9,0.8,2.9,0.9c1,0.1,2.1,0.1,3.1,0c0.3,0,0.7-0.1,1-0.1c0.1-1.8,0.4-3,1.2-4.7H25.6
		c0,0,0,0.1,0,0.1c-0.2,0.9-0.5,1.7-0.7,2.6C26,124.7,27.1,125.3,28.2,125.7z"/>
	<g>
		<path class="st2" d="M41.7,167.3c-1.1,1.6-7.4-1.4-8.1-1.9c-1.9-1.6-5.6-3.8-5.7-3.8c0,0,0,0,0,0c0,0-0.1,0-0.1,0.1
			c-0.5,1.7-1.5,3.3-1.5,5.2c0,0.8,0.1,2.2,1,2.6c1.5,1.2,6.2,0.3,6.7,0.3c0.8,0.6,5.8,1.9,8.8,1.7c0.9-0.1,1.9-0.6,2.3-1.4
			C45.4,169.7,45.6,168.5,41.7,167.3z"/>
	</g>
	<g>
		<path class="st10" d="M217,56.2c1-1.7,3.5-3.4,5.4-3.7c9.9-1.9,37.7-7.1,47.6-9c2-0.4,3.7,0.9,3.9,2.9l3.8,33.5l-3.7,33.2
			c-0.2,2-2,4-3.9,4.4l-73.9,17.6l2.7-49.8C198.9,85.4,212,64.2,217,56.2z"/>
		<path class="st11" d="M273.9,46.4c-0.2-1.8-1.7-3.1-3.5-3l3.6,31.5l-3.7,33.2c-0.2,2-2,3.9-3.9,4.4l-69.9,16.7l-0.3,5.9l73.9-17.6
			c1.9-0.5,3.7-2.4,3.9-4.4l3.7-33.2L273.9,46.4z"/>
		<path class="st11" d="M219.7,128.4c0-2.9-0.1-5.8-0.1-8.7c0-2.3-0.1-4.6-0.5-6.9c-0.9-4.4-2.5-8.6-4.6-12.5
			c-2.2-4.1-4.7-7.9-7.1-11.9c-1.2-2-2.5-3.9-3.5-6c-0.5-1-1.1-2-1.6-3.1c-2.4,3.8-4,6.5-4,6.5l-2.7,49.8l24-6.1
			C219.7,129,219.7,128.7,219.7,128.4z"/>
		<path class="st12" d="M273.3,78.4L215.6,87L201,89.2c0.7-1.2,2.4-4,4.5-7.5c1.2-2.1,2.6-4.4,4-6.8c1-1.7,2-3.4,3-5.1
			c4.3-7.3,8.1-13.8,8.1-13.8l29.2-5.4l0,0l10.8-2l0,0l9.7-1.8l0.1,1.4l1,10L273.3,78.4z"/>
		<path class="st13" d="M260.5,48.8L209.5,75c1-1.7,2-3.4,3-5.1l37.3-19.2l0,0L260.5,48.8z"/>
		<path class="st13" d="M271.3,58.4L215.6,87L201,89.2c0.7-1.2,2.4-4,4.5-7.5l64.9-33.4L271.3,58.4z"/>
		<g>
			<g>
				<g>
					<g>
						<path class="st14" d="M71.3,95.9H59.5c-0.7,0-1.4-0.6-1.6-1.3L56,86.2c-0.2-0.7,0.3-1.3,1-1.3h14.3c0.7,0,1.3,0.6,1.3,1.3v8.4
							C72.6,95.4,72,95.9,71.3,95.9z"/>
						<path class="st11" d="M77.1,97.3c0.5,0.5,0.5,1.2,0,1.7l0,0c-0.5,0.5-1.2,0.5-1.7,0l-5.2-5.2c-0.5-0.5-0.5-1.2,0-1.7l0,0
							c0.5-0.5,1.2-0.5,1.7,0L77.1,97.3z"/>
					</g>
					<g>
						<path class="st14" d="M208.9,95.9h11.8c0.7,0,1.4-0.6,1.6-1.3l1.9-8.5c0.2-0.7-0.3-1.3-1-1.3h-14.3c-0.7,0-1.3,0.6-1.3,1.3
							v8.4C207.6,95.4,208.2,95.9,208.9,95.9z"/>
						<path class="st11" d="M203.1,97.3c-0.5,0.5-0.5,1.2,0,1.7l0,0c0.5,0.5,1.2,0.5,1.7,0l5.2-5.2c0.5-0.5,0.5-1.2,0-1.7l0,0
							c-0.5-0.5-1.2-0.5-1.7,0L203.1,97.3z"/>
					</g>
				</g>
				<g>
					<g>
						<path class="st12" d="M97.1,132.8v23.1c-0.1,5-4.1,9.1-9.2,9.2h-7.7c-5.1,0-9.3-4.2-9.3-9.3v-23c0-5.1,4.2-9.3,9.3-9.3h7.5
							C92.9,123.5,97.1,127.7,97.1,132.8z"/>
						<g>
							<rect x="85.3" y="146" class="st12" width="1.4" height="19.1"/>
							<rect x="81.3" y="146" class="st12" width="1.4" height="19.1"/>
						</g>
						<g>
							<polygon class="st12" points="97.1,147.5 97.1,149.6 86.7,160 86.1,160.6 86.1,158.5 86.7,157.9 							"/>
							<polygon class="st12" points="97.1,153.8 97.1,155.9 87.9,165.1 86.1,165.1 86.1,164.8 86.7,164.2 							"/>
							<polygon class="st12" points="97.1,141.2 97.1,143.3 86.7,153.7 86.1,154.3 86.1,152.2 86.7,151.6 							"/>
						</g>
						<g>
							<polygon class="st12" points="70.9,147.5 70.9,149.6 81.3,160 81.9,160.6 81.9,158.5 81.3,157.9 							"/>
							<polygon class="st12" points="70.9,153.8 70.9,155.9 80.1,165.1 81.9,165.1 81.9,164.8 81.3,164.2 							"/>
							<polygon class="st12" points="70.9,141.2 70.9,143.3 81.3,153.7 81.9,154.3 81.9,152.2 81.3,151.6 							"/>
						</g>
					</g>
					<g>
						<path class="st12" d="M209.3,132.8v23.1c0,5-4.1,9.1-9.2,9.2h-7.7c-5.1,0-9.3-4.2-9.3-9.3v-23c0-5.1,4.2-9.3,9.3-9.3h7.5
							C205.2,123.5,209.3,127.7,209.3,132.8z"/>
						<g>
							<rect x="197.6" y="146" class="st12" width="1.4" height="19.1"/>
							<rect x="193.5" y="146" class="st12" width="1.4" height="19.1"/>
						</g>
						<g>
							<polygon class="st12" points="209.3,147.5 209.3,149.6 199,160 198.4,160.6 198.4,158.5 199,157.9 							"/>
							<polygon class="st12" points="209.3,153.8 209.3,155.9 200.2,165.1 198.4,165.1 198.4,164.8 199,164.2 							"/>
							<polygon class="st12" points="209.3,141.2 209.3,143.3 199,153.7 198.4,154.3 198.4,152.2 199,151.6 							"/>
						</g>
						<g>
							<polygon class="st12" points="183.2,147.5 183.2,149.6 193.5,160 194.1,160.6 194.1,158.5 193.5,157.9 							"/>
							<polygon class="st12" points="183.2,153.8 183.2,155.9 192.3,165.1 194.1,165.1 194.1,164.8 193.5,164.2 							"/>
							<polygon class="st12" points="183.2,141.2 183.2,143.3 193.5,153.7 194.1,154.3 194.1,152.2 193.5,151.6 							"/>
						</g>
					</g>
				</g>
				<g>
					<path class="st11" d="M211.8,116.6v16.3c0,7,0,5.8,0,11c0,5-4.1,9.4-9.1,9.9c-37.8,3-75.7,3.3-113.5,0.8
						c-3.9-0.3-7.7-0.5-11.6-0.8c-2.9-0.3-5.4-1.8-7.1-4.1c-1.2-1.7-2-3.7-2-5.8c0-5.2,0-4.1,0-11v-16.3c0-2.6,1.2-5.1,3-6.9
						c0.3-0.3,0.7-0.6,1-0.9c1.1-0.8,2.3-1.4,3.6-1.8c0.5-0.1,1-0.2,1.5-0.3c41.7-3.3,83.4-3.3,125.1,0c2.5,0.2,4.7,1.4,6.3,3.2
						C210.7,111.6,211.8,114,211.8,116.6z"/>
				</g>
				<g>
					<path class="st14" d="M214.2,109.4v16.9c0,7.2,0,6,0,11.4c0,5.2-4.2,9.8-9.4,10.2c-39.1,3.1-78.3,3.4-117.4,0.9
						c-4-0.3-8-0.5-12-0.9c-3-0.3-5.6-1.9-7.4-4.2c-1.3-1.7-2-3.8-2.1-6c0-5.4,0-4.2,0-11.4v-16.9c0-2.7,1.2-5.3,3.1-7.2
						c0.3-0.3,0.7-0.7,1.1-1c1.1-0.8,2.4-1.5,3.7-1.8c0.5-0.1,1-0.2,1.6-0.3c43.1-3.4,86.3-3.4,129.4,0c2.6,0.2,4.9,1.5,6.6,3.3
						C213.1,104.3,214.2,106.8,214.2,109.4z"/>
				</g>
				<path class="st14" d="M207.1,97.6c-3.8-9.8-7.1-19.8-10.2-29.9c-2.5-6.3-8.4-12.8-15.3-14.1c-27.8-4.1-55.5-4.1-83.3,0
					c-6.9,1.3-12.8,7.8-15.2,14.1c-3,10-6.2,20-9.9,29.8C117.4,108.5,162.8,108.6,207.1,97.6z"/>
				<path class="st12" d="M75.3,95.9c0,0,6.6-19.2,9.1-27.4c2.1-5.4,7.4-11.4,13.4-12.6c13.7-2,27.7-3.1,41.4-3.1
					c13.6,0,27.5,1,41.1,3c6.1,1.2,11.4,7.2,13.5,12.5c2.6,8.3,9.3,27.5,9.3,27.5L75.3,95.9z"/>
				<path class="st1" d="M147.9,60.5c0,1.5-1.2,2.8-2.8,2.8h-11.9c-1.5,0-2.8-1.2-2.8-2.8l0,0c0-1.5,1.2-2.8,2.8-2.8h11.9
					C146.7,57.8,147.9,59,147.9,60.5L147.9,60.5z"/>
				<g>
					<path class="st1" d="M124,95.9v-18c0-3.8-3.1-7-7-7H99.5c-3.8,0-7,3.1-7,7v18H124z"/>
					<path class="st1" d="M185.9,95.9v-18c0-3.8-3.1-7-7-7h-17.6c-3.8,0-7,3.1-7,7v18H185.9z"/>
				</g>
				<polygon class="st14" points="212,103.3 207.1,97.6 73.4,97.6 68.2,103.3 				"/>
				<path class="st12" d="M158,154.5h-35.7c-1,0-1.7-0.8-1.7-1.7v-4.9c0-1,0.8-1.7,1.7-1.7H158c1,0,1.7,0.8,1.7,1.7v4.9
					C159.7,153.7,158.9,154.5,158,154.5z"/>
				<path class="st10" d="M204.7,100.6l-14.8,12.3c-1.3,1.3-3.7,2.4-5.6,2.4H96c-1.8,0-4.3-1.1-5.6-2.4l-14.9-12.3
					c-1.2-1.3-0.8-2.4,1.1-2.4h127.1C205.5,98.1,206,99.2,204.7,100.6z"/>
				<g>
					<g>
						<path class="st11" d="M89,125.1v2.9c0,3.1-2.5,5.5-5.5,5.5H69.3c-3.1,0-5.5-2.5-5.5-5.5v-10.1c0-3.1,2.5-5.5,5.5-5.5h4.8
							c1.7,0,4,0.9,5.3,1.9l7.3,6C88,121.4,89,123.5,89,125.1z"/>
						<path class="st7" d="M69.3,131.9c-2.1,0-3.9-1.7-3.9-3.9v-10.1c0-2.1,1.7-3.9,3.9-3.9h4.8c1.3,0,3.3,0.7,4.3,1.5l7.3,6
							c0.9,0.7,1.7,2.4,1.7,3.5v2.9c0,2.1-1.7,3.9-3.9,3.9H69.3z"/>
						<path class="st11" d="M191.2,125.1v2.9c0,3.1,2.5,5.5,5.5,5.5h14.2c3.1,0,5.5-2.5,5.5-5.5v-10.1c0-3.1-2.5-5.5-5.5-5.5h-4.8
							c-1.7,0-4,0.9-5.3,1.9l-7.3,6C192.3,121.4,191.2,123.5,191.2,125.1z"/>
						<path class="st7" d="M196.8,131.9c-2.1,0-3.9-1.7-3.9-3.9v-2.9c0-1.1,0.8-2.8,1.7-3.5l7.3-6c1-0.8,3-1.5,4.3-1.5h4.8
							c2.1,0,3.9,1.7,3.9,3.9V128c0,2.1-1.7,3.9-3.9,3.9H196.8z"/>
					</g>
				</g>
				<rect x="78.4" y="139.5" class="st11" width="20.5" height="6.9"/>
				<rect x="181.3" y="139.5" class="st11" width="20.5" height="6.9"/>
				<g class="st15">
					<g>
						<g>
							<path class="st16" d="M140.1,52.9c-1.9,0-3.9,0-5.8,0.1L81.6,80c-0.5,1.4-1,2.9-1.4,4.3l61.2-31.4
								C140.9,52.9,140.5,52.9,140.1,52.9z"/>
						</g>
						<g>
							<path class="st16" d="M144.6,52.9L79.5,86.4c-1.8,5.3-3.2,9.6-3.2,9.6s1.9,0,5.2,0l82-42.1C157.1,53.3,150.8,53,144.6,52.9z"
								/>
						</g>
						<g>
							<path class="st16" d="M198,78.4l-34.2,17.6c2.9,0,5.8,0,8.5,0l27-13.8C198.8,80.9,198.4,79.6,198,78.4z"/>
						</g>
					</g>
				</g>
				<g>
					<path class="st17" d="M178.6,134.3c-0.1,3.9-3.1,7.3-6.9,8c-21,2.5-42,2.5-63,0c-3.8-0.7-6.8-4-6.9-8c0-2.3,0-3.5,0-5.8
						c0.1-3.9,3.1-7.3,6.9-8c21-2.5,42-2.5,63,0c3.8,0.7,6.8,4,6.9,8C178.6,130.8,178.6,131.9,178.6,134.3z"/>
					<path class="st12" d="M140.3,141.8c-10.3,0-20.8-0.6-31.2-1.9c-2.7-0.5-4.8-2.9-4.9-5.7v-5.8c0.1-2.8,2.2-5.2,4.9-5.7
						c10.4-1.2,20.8-1.9,31.2-1.9c10.3,0,20.8,0.6,31.2,1.9c2.7,0.5,4.9,2.9,4.9,5.7v5.8c-0.1,2.8-2.2,5.2-4.9,5.7
						C161.1,141.2,150.6,141.8,140.3,141.8z"/>
				</g>
				<g>
					<path class="st1" d="M174.6,126.4c0,0.8-0.6,1.4-1.4,1.4h-66c-0.8,0-1.4-0.6-1.4-1.4l0,0c0-0.8,0.6-1.4,1.4-1.4h66
						C173.9,124.9,174.6,125.6,174.6,126.4L174.6,126.4z"/>
					<path class="st1" d="M174.6,131.2c0,0.8-0.6,1.4-1.4,1.4h-66c-0.8,0-1.4-0.6-1.4-1.4l0,0c0-0.8,0.6-1.4,1.4-1.4h66
						C173.9,129.8,174.6,130.4,174.6,131.2L174.6,131.2z"/>
					<path class="st1" d="M174.6,136.3c0,0.8-0.6,1.4-1.4,1.4h-66c-0.8,0-1.4-0.6-1.4-1.4l0,0c0-0.8,0.6-1.4,1.4-1.4h66
						C173.9,134.9,174.6,135.5,174.6,136.3L174.6,136.3z"/>
				</g>
				<path class="st6" d="M74.7,120.4c0,2.1-1.7,3.8-3.8,3.8c-2.1,0-3.8-1.7-3.8-3.8c0-2.1,1.7-3.8,3.8-3.8
					C73,116.7,74.7,118.4,74.7,120.4z"/>
				<path class="st6" d="M209.2,120.4c0,2.1-1.7,3.8-3.8,3.8c-2.1,0-3.8-1.7-3.8-3.8c0-2.1,1.7-3.8,3.8-3.8
					C207.5,116.7,209.2,118.4,209.2,120.4z"/>
				<rect x="137.6" y="52.9" class="st1" width="3.2" height="7.9"/>
				<g>
					<rect x="80.3" y="134.9" class="st7" width="14.8" height="6.9"/>
					<rect x="185.1" y="134.9" class="st7" width="14.8" height="6.9"/>
				</g>
				<path class="st7" d="M78.4,141.2c0-2.1-1.7-3.7-3.7-3.7c-2.1,0-3.7,1.7-3.7,3.7c0,2.1,1.7,3.7,3.7,3.7
					C76.8,145,78.4,143.3,78.4,141.2z"/>
				<path class="st7" d="M209.1,141.2c0-2.1-1.7-3.7-3.7-3.7c-2.1,0-3.7,1.7-3.7,3.7c0,2.1,1.7,3.7,3.7,3.7
					C207.5,145,209.1,143.3,209.1,141.2z"/>
			</g>
			<path class="st6" d="M143.3,114c0-1-1.8-1.7-4.1-1.7c-2.3,0-4.1,0.8-4.1,1.7c0,1,1.8,1.7,4.1,1.7
				C141.5,115.8,143.3,115,143.3,114z"/>
		</g>
		<path class="st11" d="M271.7,86.1c0.2,1.4-0.8,2.8-2.2,3l-10,1.4c-1.4,0.2-2.8-0.8-3-2.2l0,0c-0.2-1.4,0.8-2.8,2.2-3l10-1.4
			C270.1,83.6,271.4,84.6,271.7,86.1L271.7,86.1z"/>
		<path class="st7" d="M270.2,85.2c0.2,1.4-0.8,2.8-2.2,3l-10,1.4c-1.4,0.2-2.8-0.8-3-2.2l0,0c-0.2-1.4,0.8-2.8,2.2-3l10-1.4
			C268.6,82.8,270,83.8,270.2,85.2L270.2,85.2z"/>
	</g>
	<path class="st18" d="M34.1,37H39c-1.4-3.7-0.8-7.3-0.3-11c0.2-3.3,0.2-6.5-0.5-9.8C37,11.3,34.7,8.5,30,6.8
		c-0.5-0.2-1-0.3-1.5-0.4c-0.8,0.8-0.5,2.6,0.9,2.8c4.7,0.5,6.2,5.1,6.3,9.5c-0.3-0.4-0.7-0.7-1.1-1c-0.7-2.9-2.1-5.5-5.1-6.5
		c-0.8-0.2-1.5-0.3-2.1-0.3c-1.2-0.8-2.6-1.1-4-0.9C24,9.1,24,7.8,22.8,7.2c-0.4-0.2-0.7-0.3-1.1-0.4c-0.3,0.1-0.6,0.2-0.9,0.3
		c-2.7,1.1-4.2,3-5.3,5.2c-0.4,1.1-0.7,2.3-0.9,3.2c-1.9,8.9,1.9,18.2-0.9,26.9c-0.8,2.6,3,4.5,4,1.8c0.1-0.3,0.2-0.6,0.3-0.9
		c0.2,0.4,0.5,0.7,0.8,1c0,0.2,0,0.5,0.1,0.7c0.2,1.4,1.5,2.7,3,2.4c4.1-0.8,8.2-0.9,12.1-2V37z"/>
	<path class="st4" d="M28.4,32.6l1.3-7.8l-8.3-0.4l-0.2,8.3l0,0c-0.5-0.5-0.7-1-0.7-1C20,32,19,32.5,17.6,33c0,0.2,0,0.3-0.1,0.4
		c-0.3,0.9-1.2,1.9-1.9,2.4c0.6-0.4-0.3,0.2-0.5,0.4c-0.4,0.3-0.7,0.7-1.1,1c0,0,0,0,0,0c0.2-0.1,0.1-0.1,0,0c0.3,0.3,0.7,0.6,1,0.9
		c0.1,0.1,0.3,0.2,0.4,0.3c0.2,0.2,0.5,0.3,0.7,0.4c0.1,0.1,0.2,0.1,0.3,0.2c-0.1-0.1,0.4,0.1,0.5,0.2c0.1,0,0.4,0.1,0.5,0.1
		c0.2,0,0.4,0,0.5,0c0.4,0,0.7,0,1.1-0.1c0,0,1-0.1,0.7-0.1c1-0.2,1.9-0.3,2.9-0.5c1.6-0.2,3.3-0.1,4.9,0.2c0.5,0.1,1,0.2,1.6,0.3
		c0.7-0.7,1.5-1.2,2.4-1.6c0-0.1,0-0.2,0-0.2c0,0,0-0.1,0-0.1c0-0.6,0.3-1.1,0.8-1.4c0.7-0.5,6.4,0,6.3-0.2
		C36.3,35.2,29.4,33.2,28.4,32.6z"/>
	<path class="st5" d="M32.1,34.3c0.2-0.1,0.4-0.1,0.7-0.2c-2.1-0.6-4-1.2-4.4-1.5l1.3-7.8l-8.3-0.4l-0.1,4.3
		C24,32.1,28,35.7,32.1,34.3z"/>
	<path class="st2" d="M42.7,120.6c-0.6,3.6-19.9,3.3-26,2C12.7,121.8,8.6,122,5,120c-1.5-0.8-2-1.9-2-3c0,0,0.2-1.2,0.2-1.3
		c0-0.1,0.3-0.8,0.3-0.9c0,0,1-2.1,1.1-2.4c2.6-5.3,2.8-11,3.5-16.7c0.3-2.2,0.5-4.8,1.4-7c0.3-1.2,0.5-2.4,0.9-3.5
		c0.1-2.5,0.9-5.2,1.7-7.8c0-0.1,0-0.2,0-0.3c0-0.1,0.1-0.2,0.2-0.2c0.7-1.9,1.4-3.8,2-5.4c1.2-3.3,2.5-6.4,2.9-9.9
		c-0.5-4.4-0.9-9.2-0.9-10.3L12.8,62L1.9,58.8c0,0,6.2-18.9,8.9-22.2c0.5-0.7,9.6-4.6,9.7-4.6c0.1,0.8,0.8,1.7,1.1,2.4
		c0.9,1.8,2.4,3.4,4.3,4.1c1.8,0.7,4,0.4,5.1-1.3c0.2-0.2,0.8-1.5,1.2-2.5c0.3-0.5,0.5-0.7,0.5-0.7c3.1,0.7,5.3,0.9,5.9,1.5
		c1.4,1.3,2.2,4.4,2.1,6.2c-0.1,3.3-2.2,17.2-2.5,20.6c0,0.2,4.3,38.8,4.3,39.6C42.4,102.6,43.8,114.1,42.7,120.6z"/>
	<path class="st3" d="M22.4,65.1c-1.1-0.9-1.6-2.3-2-3.6c-1.2-3.5-2.6-6.5-4.1-9.6c0.1,1.7,0.5,5.9,0.9,9.8
		c-0.2,1.7-0.6,3.2-1.1,4.8C18,65.4,20.1,64.9,22.4,65.1z"/>
	<path class="st3" d="M42.5,101.9c0.1-0.8-4.3-39.3-4.3-39.6c0.3-3.4,2.4-17.2,2.5-20.6c0.1-1.9-0.7-4.9-2.1-6.2
		c-0.6-0.6-2.8-0.8-5.9-1.5c0,0-0.2,0.2-0.5,0.7c-0.1,0.2-0.2,0.4-0.3,0.7c2,0.9,3.9,2.9,5.1,4.6c2.9,4,1.8,8.1-0.2,11.7
		c-2.2,4.3-8.3,4-12.6,5.8c-0.2,0-0.4,0.9-0.2,0.9c3.2,0.2,6.3-2.7,9.5-1.8c3.1,0.7,2.2,5.2,2,7.9c-1.3,14.9,0.4,29.3,2.2,44.3
		c0.5,4-0.4,8.1-3.8,9.9c-6.5,3.6-14.2,1.1-21.4,1.1c-3.2,0-6.2-1.4-9.3-1.8c0.2,0.7,0.8,1.4,1.8,1.9c3.6,2,7.7,1.8,11.7,2.6
		c6.2,1.2,25.4,1.5,26-2C43.8,114.1,42.4,102.6,42.5,101.9z"/>
	<path class="st0" d="M20.8,19c0-0.4-0.4-10.5,7.4-10.7c9.2-0.3,7.7,10.5,7.7,10.5c-0.1,1.3-0.6,5.3-1,6.8c-0.7,2-2.1,5.6-3.9,5.9
		c-2.5,0.5-7.8-3.6-8.1-3.8C20.5,26.4,20.7,19.1,20.8,19z"/>
	<path class="st8" d="M28.2,8.3c-3.7,0.1-5.6,2.5-6.5,4.9c3.7-0.2,7.3,0.9,10.1,2.9c4.5,3.2,2.9,10.3-1.1,13.7
		c-1.6,1.3-3.6-0.2-5.7-0.6c1.9,1.2,4.4,2.6,5.9,2.3c1.7-0.3,3.2-3.9,3.9-5.9c0.5-1.5,0.9-5.4,1-6.8C35.8,18.8,37.4,8,28.2,8.3z"/>
	<path class="st9" d="M17.7,19.8c0.1,0.3,0.2,0.8,0.2,0.9C17.8,20.4,17.8,20.1,17.7,19.8z"/>
	<g>
		<path class="st0" d="M22.1,20.8c0.9,1.4,1,2.9,0.2,3.4c-0.8,0.5-2.1-0.3-3-1.7c-0.9-1.4-1-3-0.2-3.4
			C19.9,18.6,21.2,19.4,22.1,20.8z"/>
	</g>
	<path class="st18" d="M38.4,17.8C38.4,17.8,38.4,17.8,38.4,17.8C38.4,17.8,38.4,17.8,38.4,17.8c-0.1-0.5-0.2-1.1-0.3-1.6
		c-0.1-0.3-0.2-0.6-0.2-1c-0.5-0.6-0.9-1.3-1.4-1.9c0.1-0.3,0-0.7,0-1c0-0.2,0-0.3,0-0.4c-1.4-2.3-3.5-4-6.5-5
		c-1.4-0.5-3.1-0.8-4.8-0.8c-1.5,0.2-2.9,0.5-4.3,1.1c-1.4,0.6-2.4,1.3-3.3,2.3c-0.2,0.5-0.4,1.1-0.5,1.7c-2,2.4-2.8,5.1-3.3,8
		c-0.3,1.1-0.5,2.1-0.6,3.2c-0.3,1.2-0.6,2.5-0.7,3.8c-0.1,0.9-0.1,1.9-0.2,2.8c-0.1,3.7,0.3,7.5,1.7,11c1.3,3.2,3.2,6.2,6.6,7.4
		c1.1,0.4,2,0.3,2.9,0.1c1.1-0.9,1.7-2.6,2-3.8c0.6-2.4,0.3-4.8-0.2-7.1c-0.4-1.7-1-3.4-1.4-5.1c-0.1-1-0.2-2.1-0.3-3.1
		c0-1.4,0.1-2.9,0.1-4.3c0.1-0.6,0.2-1.1,0.4-1.7c0.8-2.4,2.8-3.9,4.4-5.7c0.8-0.9,1.5-2,2.4-2.9c0.1-0.1,0.3-0.2,0.4-0.3
		c1,0.8,2,1.8,2.8,2.7c0,0,0,0,0,0c1,1.4,1.7,3,2.1,4.8c0.5,2.2,0.4,4.4,0.1,6.6c-0.2,1.1-0.5,2.2-0.8,3.2c-0.3,0.9-1,1.8-1,2.8
		c0,0.3,0.4,0.5,0.5,0.2c2.1-4.2,3-9.1,1.9-13.7c-0.2-0.7-0.4-1.3-0.6-1.9c0.7,0.3,1.4,0.5,2.2,0.4c0.1,0,0.2-0.1,0.2-0.2
		C38.5,18,38.5,17.9,38.4,17.8z"/>
	<path class="st2" d="M11.3,162.4c-0.2,0.3-0.4,2.6-0.6,3.2c-0.2,1.1-1.9,2.5-2.1,2.5c-0.7,0.4-1.5,0.3-2.2-0.4
		c-0.5-0.6-0.9-5.1-0.8-6c-1.4,1.6-2.6,11.3,0.6,11.7C13.2,174.2,11.4,162.2,11.3,162.4z"/>
	<path class="st11" d="M16.9,66.8c0,0,1.4,0,2.8,0.8c1,0.6,1.6,1.6,1.8,2.7c0.6,3.2,0.2,6.6-0.9,11.9l-1.2-0.1
		C19.4,82.2,22.1,68.5,16.9,66.8z"/>
	<g>
		<path class="st4" d="M33.3,70.5c-0.1-0.2-0.1-0.4-0.2-0.6c-0.1-0.1-0.2-0.2-0.3-0.4c-0.2-0.3-0.4-0.3-0.7-0.4
			c-0.2-0.1-0.5-0.2-0.7-0.3c-0.6-0.2-1.1-0.3-1.7-0.3c-0.3,0-0.8,0-1.1,0.2c-0.1,0.3-0.1,0.7-0.1,1c0,0,0,0,0,0c0.3,0,0.7,0,1,0.1
			c0.5,0,1.1,0,1.5,0.3c0.2,0.1,0.1,0.3,0,0.5c0,0,0,0.1,0,0.1c0,0,0,0,0,0c0.7,0.1,0.8,0.8,1.2,1.4c0.2,0.3,0.5,0.5,0.7,0
			c0.1,0.1,0.2,0.2,0.3,0.2c0.3,0.1,0.6-0.2,0.5-0.5C33.7,71.3,33.4,70.9,33.3,70.5z"/>
		<path class="st0" d="M34.1,70.2c-0.2-0.3-0.8-1.6-1-1.8c-0.6-0.5-2.9-1.8-3.4-2l-6.7,1c0,0-11.5-1.7-16.5-1.8c-3.7,0-6,1-6,1
			C0,68.2-0.3,70,0.6,71.3c1.7,2.5,16.4,1.6,22.2-0.9c1.6,0.4,3.4,1.2,5.1,0.7c0.7-0.2,1.3-0.6,2-0.5c0.3,0.1,1.3,0.3,1.4-0.2
			c0.1-0.7-0.9-0.9-1.2-0.9c-0.3,0-1.2-0.2-1.4-0.1c0.1,0,0.8-0.1,0.9-0.2c0.9-0.1,2.1,0,2.8,0.4c0.5,0.3,0.8,1.2,1.2,1.7
			c0.1,0.2,0.5,0.4,0.7,0.2C34.8,71.2,34.2,70.5,34.1,70.2z"/>
	</g>
	<path class="st14" d="M16,66.5c0,0-1.4-0.5-2.9-0.1c-1.1,0.3-2,1-2.6,2C9,71.3,8.3,74.6,7.7,80l1.2,0.3C8.8,80.3,10.5,66.5,16,66.5
		z"/>
	<g>
		<path class="st11" d="M18.2,93.3L6.6,91.6c-2-0.3-3.1-2.1-2.6-4l2.4-8.2L22,81.8l-0.2,8.5C21.8,92.3,20.2,93.6,18.2,93.3z"/>
		<path class="st11" d="M20.9,81.6l-0.2,7.5c0,2-1.7,3.4-3.6,3.1L5.4,90.4C5,90.3,4.6,90.2,4.3,90c0.4,0.8,1.3,1.4,2.3,1.6l11.7,1.8
			c2,0.3,3.6-1.1,3.6-3.1l0.2-8.5L20.9,81.6z"/>
		<path class="st14" d="M19.2,87.4l-2.8,0.2c-2,0.1-5.1-0.3-6.9-1.1l-2.1-0.9c-1.8-0.7-2.8-2.8-2-4.7l1.3-3.3l15.6,2.4
			c0,0,0.1,1.6,0.3,3.5C22.7,85.6,21.2,87.3,19.2,87.4z"/>
	</g>
	<path class="st6" d="M14.2,86.9c0-0.8-0.7-1.5-1.4-1.5c-0.8,0-1.4,0.7-1.4,1.5c0,0.8,0.7,1.4,1.4,1.4
		C13.5,88.3,14.2,87.7,14.2,86.9z"/>
	<g>
		<path class="st3" d="M38.9,137.1c0.1-1.3,1.1-2.3,2.3-2.3h12.5c1.2,0,2.2,1,2.3,2.3l0.1,3.1h3.5v-3.1c-0.1-3.4-2.7-6.2-5.9-6.2
			H41.2c-3.2,0-5.8,2.7-5.9,6.2v3.1h3.4L38.9,137.1z"/>
		<path class="st3" d="M55.8,136c0.2,0.3,0.3,0.7,0.3,1.1l0.1,3.1h3.5v-3.1c0-0.4-0.1-0.7-0.1-1.1H55.8z"/>
		<path class="st3" d="M35.5,136c-0.1,0.4-0.1,0.7-0.1,1.1v3.1h3.4l0.2-3.1c0-0.4,0.1-0.8,0.3-1.1H35.5z"/>
		<path class="st2" d="M29.4,180.2c-5.1,0-9.3-4.2-9.3-9.3v-22.7c0-5.1,4.2-9.3,9.3-9.3h36.1c5.2,0,9.3,4.2,9.3,9.3v22.7
			c0,5.1-4.2,9.3-9.3,9.3H29.4z"/>
		<path class="st7" d="M65,179.3h-1.3c-0.1,0-0.1-0.1-0.1-0.1c0-0.1,0.1-0.1,0.1-0.1H65c0.1,0,0.1,0.1,0.1,0.1
			C65.2,179.3,65.1,179.3,65,179.3z M62.5,179.3h-1.3c-0.1,0-0.1-0.1-0.1-0.1c0-0.1,0.1-0.1,0.1-0.1h1.3c0.1,0,0.1,0.1,0.1,0.1
			C62.6,179.3,62.6,179.3,62.5,179.3z M60,179.3h-1.3c-0.1,0-0.1-0.1-0.1-0.1c0-0.1,0.1-0.1,0.1-0.1H60c0.1,0,0.1,0.1,0.1,0.1
			C60.1,179.3,60,179.3,60,179.3z M57.4,179.3h-1.3c-0.1,0-0.1-0.1-0.1-0.1c0-0.1,0.1-0.1,0.1-0.1h1.3c0.1,0,0.1,0.1,0.1,0.1
			C57.6,179.3,57.5,179.3,57.4,179.3z M54.9,179.3h-1.3c-0.1,0-0.1-0.1-0.1-0.1c0-0.1,0.1-0.1,0.1-0.1h1.3c0.1,0,0.1,0.1,0.1,0.1
			C55,179.3,55,179.3,54.9,179.3z M52.3,179.3h-1.3c-0.1,0-0.1-0.1-0.1-0.1c0-0.1,0.1-0.1,0.1-0.1h1.3c0.1,0,0.1,0.1,0.1,0.1
			C52.5,179.3,52.4,179.3,52.3,179.3z M49.8,179.3h-1.3c-0.1,0-0.1-0.1-0.1-0.1c0-0.1,0.1-0.1,0.1-0.1h1.3c0.1,0,0.1,0.1,0.1,0.1
			C49.9,179.3,49.9,179.3,49.8,179.3z M47.3,179.3H46c-0.1,0-0.1-0.1-0.1-0.1c0-0.1,0.1-0.1,0.1-0.1h1.3c0.1,0,0.1,0.1,0.1,0.1
			C47.4,179.3,47.3,179.3,47.3,179.3z M44.7,179.3h-1.3c-0.1,0-0.1-0.1-0.1-0.1c0-0.1,0.1-0.1,0.1-0.1h1.3c0.1,0,0.1,0.1,0.1,0.1
			C44.8,179.3,44.8,179.3,44.7,179.3z M42.2,179.3h-1.3c-0.1,0-0.1-0.1-0.1-0.1c0-0.1,0.1-0.1,0.1-0.1h1.3c0.1,0,0.1,0.1,0.1,0.1
			C42.3,179.3,42.2,179.3,42.2,179.3z M39.6,179.3h-1.3c-0.1,0-0.1-0.1-0.1-0.1c0-0.1,0.1-0.1,0.1-0.1h1.3c0.1,0,0.1,0.1,0.1,0.1
			C39.8,179.3,39.7,179.3,39.6,179.3z M37.1,179.3h-1.3c-0.1,0-0.1-0.1-0.1-0.1c0-0.1,0.1-0.1,0.1-0.1h1.3c0.1,0,0.1,0.1,0.1,0.1
			C37.2,179.3,37.2,179.3,37.1,179.3z M34.6,179.3h-1.3c-0.1,0-0.1-0.1-0.1-0.1c0-0.1,0.1-0.1,0.1-0.1h1.3c0.1,0,0.1,0.1,0.1,0.1
			C34.7,179.3,34.6,179.3,34.6,179.3z M32,179.3h-1.3c-0.1,0-0.1-0.1-0.1-0.1c0-0.1,0-0.1,0.1-0.1H32c0.1,0,0.1,0.1,0.1,0.1
			C32.1,179.3,32.1,179.3,32,179.3z M29.5,179.3L29.5,179.3c-0.5,0-0.9,0-1.3-0.1c-0.1,0-0.1-0.1-0.1-0.1c0-0.1,0.1-0.1,0.1-0.1
			c0.4,0.1,0.8,0.1,1.2,0.1h0c0.1,0,0.1,0.1,0.1,0.1C29.6,179.3,29.5,179.3,29.5,179.3z M66.3,179.3c-0.1,0-0.1,0-0.1-0.1
			c0-0.1,0-0.1,0.1-0.1c0.4,0,0.8-0.1,1.2-0.2c0.1,0,0.1,0,0.1,0.1c0,0.1,0,0.1-0.1,0.2C67.2,179.2,66.8,179.3,66.3,179.3
			C66.3,179.3,66.3,179.3,66.3,179.3z M26.9,178.9C26.9,178.9,26.9,178.9,26.9,178.9c-0.4-0.1-0.9-0.3-1.2-0.5
			c-0.1,0-0.1-0.1-0.1-0.2c0-0.1,0.1-0.1,0.2-0.1c0.4,0.2,0.8,0.3,1.2,0.5c0.1,0,0.1,0.1,0.1,0.2C27,178.9,27,178.9,26.9,178.9z
			 M68.8,178.7c-0.1,0-0.1,0-0.1-0.1c0-0.1,0-0.1,0.1-0.2c0.4-0.2,0.8-0.3,1.1-0.6c0.1,0,0.1,0,0.2,0c0,0.1,0,0.1,0,0.2
			C69.6,178.3,69.2,178.5,68.8,178.7C68.8,178.7,68.8,178.7,68.8,178.7z M24.7,177.8C24.6,177.8,24.6,177.8,24.7,177.8
			c-0.4-0.3-0.8-0.5-1.1-0.8c0-0.1-0.1-0.1,0-0.2c0.1,0,0.1-0.1,0.2,0c0.3,0.3,0.6,0.5,1,0.8c0.1,0,0.1,0.1,0,0.2
			C24.7,177.8,24.7,177.8,24.7,177.8z M70.9,177.4C70.9,177.4,70.9,177.4,70.9,177.4c-0.1-0.1-0.1-0.2-0.1-0.2
			c0.3-0.3,0.6-0.6,0.9-0.9c0-0.1,0.1-0.1,0.2,0c0.1,0,0.1,0.1,0,0.2C71.7,176.8,71.3,177.1,70.9,177.4
			C71,177.4,71,177.4,70.9,177.4z M22.8,176.1c0,0-0.1,0-0.1-0.1c-0.3-0.3-0.5-0.7-0.7-1.1c0-0.1,0-0.1,0.1-0.2c0.1,0,0.1,0,0.2,0
			c0.2,0.4,0.4,0.7,0.7,1C23,175.9,23,176,22.8,176.1C22.9,176.1,22.9,176.1,22.8,176.1z M72.6,175.5
			C72.6,175.5,72.6,175.5,72.6,175.5c-0.1-0.1-0.1-0.1-0.1-0.2c0.2-0.3,0.4-0.7,0.6-1.1c0-0.1,0.1-0.1,0.2-0.1
			c0.1,0,0.1,0.1,0.1,0.2c-0.2,0.4-0.4,0.8-0.6,1.1C72.7,175.5,72.7,175.5,72.6,175.5z M21.6,173.9c0,0-0.1,0-0.1-0.1
			c-0.1-0.4-0.3-0.8-0.4-1.2c0-0.1,0-0.1,0.1-0.2c0.1,0,0.1,0,0.1,0.1c0.1,0.4,0.2,0.8,0.3,1.2C21.7,173.8,21.7,173.8,21.6,173.9
			C21.6,173.9,21.6,173.9,21.6,173.9z M73.7,173.2C73.6,173.2,73.6,173.2,73.7,173.2c-0.1,0-0.1-0.1-0.1-0.2
			c0.1-0.4,0.2-0.8,0.2-1.2c0-0.1,0.1-0.1,0.1-0.1c0.1,0,0.1,0.1,0.1,0.1c-0.1,0.4-0.1,0.9-0.2,1.3
			C73.8,173.1,73.7,173.2,73.7,173.2z M21.1,171.4c-0.1,0-0.1,0-0.1-0.1c0-0.1,0-0.3,0-0.4V170c0-0.1,0.1-0.1,0.1-0.1
			c0.1,0,0.1,0.1,0.1,0.1v0.8c0,0.1,0,0.3,0,0.4C21.2,171.3,21.2,171.4,21.1,171.4C21.1,171.4,21.1,171.4,21.1,171.4z M73.9,170.7
			c-0.1,0-0.1-0.1-0.1-0.1v-1.3c0-0.1,0.1-0.1,0.1-0.1c0.1,0,0.1,0.1,0.1,0.1v1.3C74.1,170.6,74,170.7,73.9,170.7z M21.1,168.9
			c-0.1,0-0.1-0.1-0.1-0.1v-1.3c0-0.1,0.1-0.1,0.1-0.1c0.1,0,0.1,0.1,0.1,0.1v1.3C21.2,168.8,21.1,168.9,21.1,168.9z M73.9,168.1
			c-0.1,0-0.1-0.1-0.1-0.1v-1.3c0-0.1,0.1-0.1,0.1-0.1c0.1,0,0.1,0.1,0.1,0.1v1.3C74.1,168.1,74,168.1,73.9,168.1z M21.1,166.3
			c-0.1,0-0.1-0.1-0.1-0.1v-1.3c0-0.1,0.1-0.1,0.1-0.1c0.1,0,0.1,0.1,0.1,0.1v1.3C21.2,166.3,21.1,166.3,21.1,166.3z M73.9,165.6
			c-0.1,0-0.1-0.1-0.1-0.1v-1.3c0-0.1,0.1-0.1,0.1-0.1c0.1,0,0.1,0.1,0.1,0.1v1.3C74.1,165.5,74,165.6,73.9,165.6z M21.1,163.8
			c-0.1,0-0.1-0.1-0.1-0.1v-1.3c0-0.1,0.1-0.1,0.1-0.1c0.1,0,0.1,0.1,0.1,0.1v1.3C21.2,163.7,21.1,163.8,21.1,163.8z M73.9,163
			c-0.1,0-0.1-0.1-0.1-0.1v-1.3c0-0.1,0.1-0.1,0.1-0.1c0.1,0,0.1,0.1,0.1,0.1v1.3C74.1,163,74,163,73.9,163z M21.1,161.2
			c-0.1,0-0.1-0.1-0.1-0.1v-1.3c0-0.1,0.1-0.1,0.1-0.1c0.1,0,0.1,0.1,0.1,0.1v1.3C21.2,161.2,21.1,161.2,21.1,161.2z M73.9,160.5
			c-0.1,0-0.1-0.1-0.1-0.1v-1.3c0-0.1,0.1-0.1,0.1-0.1c0.1,0,0.1,0.1,0.1,0.1v1.3C74.1,160.4,74,160.5,73.9,160.5z M21.1,158.7
			c-0.1,0-0.1-0.1-0.1-0.1v-1.3c0-0.1,0.1-0.1,0.1-0.1c0.1,0,0.1,0.1,0.1,0.1v1.3C21.2,158.6,21.1,158.7,21.1,158.7z M73.9,158
			c-0.1,0-0.1-0.1-0.1-0.1v-1.3c0-0.1,0.1-0.1,0.1-0.1c0.1,0,0.1,0.1,0.1,0.1v1.3C74.1,157.9,74,158,73.9,158z M21.1,156.1
			c-0.1,0-0.1-0.1-0.1-0.1v-1.3c0-0.1,0.1-0.1,0.1-0.1c0.1,0,0.1,0.1,0.1,0.1v1.3C21.2,156.1,21.1,156.1,21.1,156.1z M73.9,155.4
			c-0.1,0-0.1-0.1-0.1-0.1V154c0-0.1,0.1-0.1,0.1-0.1c0.1,0,0.1,0.1,0.1,0.1v1.3C74.1,155.4,74,155.4,73.9,155.4z M21.1,153.6
			c-0.1,0-0.1-0.1-0.1-0.1v-1.3c0-0.1,0.1-0.1,0.1-0.1c0.1,0,0.1,0.1,0.1,0.1v1.3C21.2,153.6,21.1,153.6,21.1,153.6z M73.9,152.9
			c-0.1,0-0.1-0.1-0.1-0.1v-1.3c0-0.1,0.1-0.1,0.1-0.1c0.1,0,0.1,0.1,0.1,0.1v1.3C74.1,152.8,74,152.9,73.9,152.9z M21.1,151.1
			c-0.1,0-0.1-0.1-0.1-0.1v-1.3c0-0.1,0.1-0.1,0.1-0.1c0.1,0,0.1,0.1,0.1,0.1v1.3C21.2,151,21.1,151.1,21.1,151.1z M73.9,150.3
			c-0.1,0-0.1-0.1-0.1-0.1v-1.3c0-0.1,0.1-0.1,0.1-0.1c0.1,0,0.1,0.1,0.1,0.1v1.3C74.1,150.3,74,150.3,73.9,150.3z M21.1,148.5
			c-0.1,0-0.1-0.1-0.1-0.1v-0.3c0-0.3,0-0.7,0.1-1c0-0.1,0.1-0.1,0.1-0.1c0.1,0,0.1,0.1,0.1,0.1c0,0.3-0.1,0.6-0.1,1v0.3
			C21.2,148.5,21.1,148.5,21.1,148.5z M73.9,147.8c-0.1,0-0.1-0.1-0.1-0.1c0-0.4-0.1-0.8-0.2-1.2c0-0.1,0-0.1,0.1-0.1
			c0.1,0,0.1,0,0.2,0.1c0.1,0.4,0.1,0.8,0.2,1.3C74.1,147.7,74,147.8,73.9,147.8L73.9,147.8z M21.4,146C21.4,146,21.3,146,21.4,146
			c-0.1,0-0.1-0.1-0.1-0.2c0.1-0.4,0.3-0.8,0.4-1.2c0-0.1,0.1-0.1,0.2-0.1c0.1,0,0.1,0.1,0.1,0.2c-0.2,0.4-0.3,0.8-0.4,1.2
			C21.5,146,21.4,146,21.4,146z M73.4,145.3c-0.1,0-0.1,0-0.1-0.1c-0.2-0.4-0.3-0.8-0.5-1.1c0-0.1,0-0.1,0-0.2c0.1,0,0.1,0,0.2,0
			c0.2,0.4,0.4,0.8,0.5,1.2C73.6,145.2,73.5,145.3,73.4,145.3C73.4,145.3,73.4,145.3,73.4,145.3z M22.4,143.7
			C22.4,143.7,22.4,143.7,22.4,143.7c-0.1-0.1-0.1-0.1-0.1-0.2c0.2-0.4,0.5-0.7,0.8-1c0-0.1,0.1-0.1,0.2,0c0.1,0,0.1,0.1,0,0.2
			c-0.3,0.3-0.5,0.7-0.8,1C22.5,143.7,22.4,143.7,22.4,143.7z M72.2,143.1c0,0-0.1,0-0.1,0c-0.3-0.3-0.5-0.6-0.8-0.9
			c-0.1,0-0.1-0.1,0-0.2c0-0.1,0.1-0.1,0.2,0c0.3,0.3,0.6,0.6,0.9,1C72.3,143,72.3,143,72.2,143.1C72.2,143.1,72.2,143.1,72.2,143.1
			z M24.1,141.8c0,0-0.1,0-0.1,0c0-0.1,0-0.1,0-0.2c0.3-0.3,0.7-0.5,1-0.7c0.1,0,0.1,0,0.2,0c0,0.1,0,0.1,0,0.2
			C24.8,141.3,24.5,141.5,24.1,141.8C24.2,141.8,24.1,141.8,24.1,141.8z M70.3,141.4C70.3,141.4,70.3,141.4,70.3,141.4
			c-0.4-0.3-0.8-0.5-1.2-0.7c-0.1,0-0.1-0.1-0.1-0.2c0-0.1,0.1-0.1,0.2-0.1c0.4,0.2,0.8,0.4,1.1,0.7c0.1,0,0.1,0.1,0,0.2
			C70.4,141.4,70.4,141.4,70.3,141.4z M26.3,140.5c-0.1,0-0.1,0-0.1-0.1c0-0.1,0-0.1,0.1-0.2c0.4-0.2,0.8-0.3,1.2-0.4
			c0.1,0,0.1,0,0.2,0.1c0,0.1,0,0.1-0.1,0.1C27.1,140.2,26.7,140.3,26.3,140.5C26.3,140.5,26.3,140.5,26.3,140.5z M68.1,140.3
			C68.1,140.3,68,140.3,68.1,140.3c-0.4-0.1-0.8-0.2-1.3-0.3c-0.1,0-0.1-0.1-0.1-0.1c0-0.1,0.1-0.1,0.1-0.1c0.4,0.1,0.8,0.2,1.3,0.3
			c0.1,0,0.1,0.1,0.1,0.2C68.2,140.2,68.1,140.3,68.1,140.3z M28.7,139.9c-0.1,0-0.1,0-0.1-0.1c0-0.1,0.1-0.1,0.1-0.1
			c0.2,0,0.5,0,0.7,0H30c0.1,0,0.1,0.1,0.1,0.1c0,0.1-0.1,0.1-0.1,0.1h-0.5C29.2,139.9,29,139.9,28.7,139.9
			C28.7,139.9,28.7,139.9,28.7,139.9z M65.6,139.9h-1.3c-0.1,0-0.1-0.1-0.1-0.1c0-0.1,0.1-0.1,0.1-0.1h1.3c0.1,0,0.1,0.1,0.1,0.1
			C65.7,139.8,65.6,139.9,65.6,139.9z M63,139.9h-1.3c-0.1,0-0.1-0.1-0.1-0.1c0-0.1,0.1-0.1,0.1-0.1H63c0.1,0,0.1,0.1,0.1,0.1
			C63.2,139.8,63.1,139.9,63,139.9z M60.5,139.9h-1.3c-0.1,0-0.1-0.1-0.1-0.1c0-0.1,0.1-0.1,0.1-0.1h1.3c0.1,0,0.1,0.1,0.1,0.1
			C60.6,139.8,60.6,139.9,60.5,139.9z M57.9,139.9h-1.3c-0.1,0-0.1-0.1-0.1-0.1c0-0.1,0.1-0.1,0.1-0.1h1.3c0.1,0,0.1,0.1,0.1,0.1
			C58.1,139.8,58,139.9,57.9,139.9z M55.4,139.9h-1.3c-0.1,0-0.1-0.1-0.1-0.1c0-0.1,0.1-0.1,0.1-0.1h1.3c0.1,0,0.1,0.1,0.1,0.1
			C55.5,139.8,55.5,139.9,55.4,139.9z M52.9,139.9h-1.3c-0.1,0-0.1-0.1-0.1-0.1c0-0.1,0.1-0.1,0.1-0.1h1.3c0.1,0,0.1,0.1,0.1,0.1
			C53,139.8,52.9,139.9,52.9,139.9z M50.3,139.9H49c-0.1,0-0.1-0.1-0.1-0.1c0-0.1,0.1-0.1,0.1-0.1h1.3c0.1,0,0.1,0.1,0.1,0.1
			C50.4,139.8,50.4,139.9,50.3,139.9z M47.8,139.9h-1.3c-0.1,0-0.1-0.1-0.1-0.1c0-0.1,0.1-0.1,0.1-0.1h1.3c0.1,0,0.1,0.1,0.1,0.1
			C47.9,139.8,47.8,139.9,47.8,139.9z M45.2,139.9H44c-0.1,0-0.1-0.1-0.1-0.1c0-0.1,0.1-0.1,0.1-0.1h1.3c0.1,0,0.1,0.1,0.1,0.1
			C45.4,139.8,45.3,139.9,45.2,139.9z M42.7,139.9h-1.3c-0.1,0-0.1-0.1-0.1-0.1c0-0.1,0.1-0.1,0.1-0.1h1.3c0.1,0,0.1,0.1,0.1,0.1
			C42.8,139.8,42.8,139.9,42.7,139.9z M40.2,139.9h-1.3c-0.1,0-0.1-0.1-0.1-0.1c0-0.1,0.1-0.1,0.1-0.1h1.3c0.1,0,0.1,0.1,0.1,0.1
			C40.3,139.8,40.2,139.9,40.2,139.9z M37.6,139.9h-1.3c-0.1,0-0.1-0.1-0.1-0.1c0-0.1,0.1-0.1,0.1-0.1h1.3c0.1,0,0.1,0.1,0.1,0.1
			C37.7,139.8,37.7,139.9,37.6,139.9z M35.1,139.9h-1.3c-0.1,0-0.1-0.1-0.1-0.1c0-0.1,0.1-0.1,0.1-0.1h1.3c0.1,0,0.1,0.1,0.1,0.1
			C35.2,139.8,35.1,139.9,35.1,139.9z M32.5,139.9h-1.3c-0.1,0-0.1-0.1-0.1-0.1c0-0.1,0.1-0.1,0.1-0.1h1.3c0.1,0,0.1,0.1,0.1,0.1
			C32.7,139.8,32.6,139.9,32.5,139.9z"/>
		<path class="st2" d="M73,170.8c0,4.1-3.3,7.4-7.4,7.4H29.4c-4.1,0-7.4-3.3-7.4-7.4v-22.7c0-4.1,3.3-7.4,7.4-7.4h36.1
			c4.1,0,7.4,3.3,7.4,7.4V170.8z"/>
		<path class="st3" d="M66.7,140.8v37.3c3.6-0.5,6.3-3.6,6.3-7.3v-22.7C73,144.4,70.2,141.4,66.7,140.8z"/>
		<path class="st3" d="M27.9,140.9c-3.3,0.7-5.8,3.7-5.8,7.2v22.7c0,3.5,2.5,6.5,5.8,7.2V140.9z"/>
		<rect x="30.4" y="140.7" class="st3" width="2.1" height="37.5"/>
		<rect x="62.1" y="140.7" class="st3" width="2.1" height="37.5"/>
		<g>
			<path class="st2" d="M39.2,147.6c-2.8,0-5.1,2.3-5.1,5.1c0,2.8,2.3,5.1,5.1,5.1c2.8,0,5.1-2.3,5.1-5.1
				C44.2,149.8,42,147.6,39.2,147.6z"/>
			<path class="st19" d="M39.2,147.9c-2.6,0-4.8,2.1-4.8,4.8c0,2.6,2.1,4.8,4.8,4.8c2.6,0,4.8-2.1,4.8-4.8
				C43.9,150,41.8,147.9,39.2,147.9z"/>
			<path class="st6" d="M42.4,154.7l-2.6-1.8c-0.2,0.6-0.5,1.3-0.7,1.8l0.8,1l-0.1,0.3l-1.1-0.8l-0.2,0.4l-0.3-0.1l0.1-0.4l-1.3-0.1
				l0.1-0.3l1.2-0.3c0.1-0.6,0.3-1.2,0.5-1.9l-3.1-0.2l0.2-0.7l1.9-0.5l0,0l0.1-0.3c0-0.1,0.1-0.1,0.2-0.1c0.1,0,0.1,0.1,0.1,0.2
				l0,0.1l1.3-0.3c0.4-0.9,0.8-1.6,1.1-1.6c0.2,0.1,0.1,0.9-0.1,1.9l0.8,1l0-0.1c0-0.1,0.1-0.2,0.2-0.1c0.1,0,0.1,0.1,0.1,0.2
				l-0.1,0.3l0,0l1.2,1.5L42.4,154.7z"/>
		</g>
		<g>
			
				<rect x="50.8" y="145" transform="matrix(0.5235 -0.852 0.852 0.5235 -100.6986 117.3733)" class="st20" width="7.5" height="7.4"/>
			
				<rect x="51" y="145.2" transform="matrix(0.523 -0.8523 0.8523 0.523 -100.7159 117.4672)" class="st20" width="7.2" height="7.1"/>
			<path class="st6" d="M56.4,149.9c-0.1-0.1-0.3-0.1-0.4-0.1l0-2.6c0,0,0-0.1-0.1-0.1c0,0,0,0,0,0l-0.5-0.2c0,0,0,0,0,0
				c0,0-0.1,0-0.2-0.1c-0.1,0-0.3,0-0.4,0.1c-0.1,0.2,0.3,0.5,0.4,0.7c0,0,0,0,0,0c0,0,0.1,0,0.1,0c0,0,0-0.1,0-0.2
				c-0.2-0.1-0.4-0.4-0.4-0.4c0,0,0.1,0,0.2,0c0,0,0.1,0,0.1,0l0.4,0.2l0,1.3l-1.8-0.8l0-0.3c0.2,0.1,0.4,0.1,0.4,0.1
				c0.1-0.1-0.1-0.3-0.4-0.4c-0.3-0.2-0.5-0.2-0.6-0.1c0,0.1,0.1,0.2,0.3,0.4c0,0,0,0,0,0.1v0.4l-0.7,0.3c-0.1-0.1-0.2-0.3-0.3-0.4
				c-0.5-0.3-1.1-0.1-1.4,0.3c-0.3,0.5-0.1,1.1,0.3,1.4c0.4,0.3,1,0.2,1.3-0.2l0.7,0.5c0,0,0.1,0.1,0.1,0.1c0.1,0.1,0.2,0.1,0.3,0
				c0,0,0,0,0-0.1l1.7-0.8l0,0.9c-0.3,0-0.6,0.2-0.8,0.5c-0.3,0.5-0.1,1.1,0.3,1.4c0.5,0.3,1.1,0.1,1.4-0.3
				C57,150.8,56.8,150.2,56.4,149.9z M51.6,148.2c0.1-0.1,0.2-0.2,0.3-0.3c0,0,0,0,0,0l0.3,0.6c0,0,0,0,0,0l0,0c0,0,0,0,0,0
				c0,0,0,0,0,0l-0.7,0C51.4,148.4,51.5,148.3,51.6,148.2z M51.8,149.2c-0.2-0.1-0.3-0.4-0.4-0.6l0.7,0h0c0,0,0,0,0,0c0,0,0,0,0,0
				c0,0,0,0,0,0v0L51.8,149.2z M52.3,148.4L52.3,148.4l-0.4-0.6c0,0,0,0,0,0c0.2-0.1,0.5-0.1,0.8,0L52.3,148.4z M53,148.3
				c0,0.1,0,0.2,0,0.2c0,0,0,0,0,0l-0.5,0L53,148.3z M52.7,147.9c0.1,0.1,0.2,0.2,0.2,0.3l-0.6,0.2L52.7,147.9z M51.8,149.3l0.3-0.6
				l0.1,0.1l0.3,0.5C52.3,149.4,52.1,149.4,51.8,149.3z M52.6,149.3l-0.2-0.4l0.4,0.3C52.7,149.2,52.7,149.2,52.6,149.3z
				 M52.5,148.6l0.5,0c0,0,0,0,0,0c0,0.1,0,0.2-0.1,0.3L52.5,148.6z M53.7,149.5l-0.6-0.4c0.1-0.3,0.2-0.5,0.1-0.8l0.6-0.3
				L53.7,149.5C53.7,149.4,53.7,149.5,53.7,149.5z M54,149.5C54,149.5,54,149.5,54,149.5C53.9,149.5,53.9,149.5,54,149.5l0-1.5
				l1.6,0.7L54,149.5z M55.7,150l0,0.6l-0.3-0.5c0,0,0,0,0,0C55.5,150,55.6,150,55.7,150z M55.1,150.4c0.1-0.1,0.2-0.2,0.3-0.3
				c0,0,0,0,0,0l0.3,0.6v0.1l-0.7,0C55,150.6,55.1,150.5,55.1,150.4z M55.4,151.4c-0.2-0.1-0.3-0.4-0.4-0.6l0.7,0c0,0,0,0,0,0
				L55.4,151.4z M55.9,150.5V150c0.1,0,0.2,0,0.3,0.1L55.9,150.5z M56.3,150.1c0.2,0.2,0.4,0.4,0.4,0.7c0,0,0,0,0,0l-0.7,0v-0.1
				L56.3,150.1z M55.4,151.5l0.4-0.6c0,0,0,0,0,0h0l0.3,0.6C55.9,151.6,55.7,151.6,55.4,151.5z M56.2,151.5l-0.3-0.6c0,0,0,0,0,0
				l0.7,0c0,0,0,0,0,0c0,0.1,0,0.2-0.1,0.4C56.4,151.3,56.3,151.4,56.2,151.5z"/>
		</g>
	</g>
	<path class="st0" d="M226.1,46.1c0-0.2-2.7-3.1-2.8-3.3c-0.5-0.6-1.1-1.2-1.6-1.8c-1.1-1.1-2.5-1.8-3.6-2.9
		c-0.3-0.3-1.2-1.5-1.7-1.5c-0.1,0-0.2,0.1-0.3,0.2c-1,1.6,1,2.8,1.9,3.6c0.4,0.3,0.6,0.8,1,1.1c-1.4-0.4-2.7-0.8-4.1-1.2
		c-0.8-0.2-4.7-1.5-4.9-0.6c-0.1,0.5,0.5,0.8,0.9,0.9c1.5,0.7,3,1.3,4.5,1.8c-1.3-0.4-2.6-0.8-4-1.1c-0.6-0.2-3-0.7-3.2,0.2
		c-0.1,0.3,0.1,0.5,0.3,0.7c1.8,0.8,3.7,1.3,5.7,1.6c-1.5-0.3-3-0.5-4.4-0.8c-0.4-0.1-1.2-0.1-1.4,0.3c-0.3,0.6,0.4,1,0.8,1.1
		c1.7,0.6,3.2,1,4.9,1.3c-1.3,0.1-5.4-0.8-4.7,0.2c0.2,0.3,0.5,0.4,0.8,0.5c1.9,0.7,3,1.2,4.9,1.9c0.8,0.3,2.1,0.6,2.9,0.8
		c1,0.2,1.8,0.3,2.8,0.5c1.4,0.3,2.7,0.2,4.1,0.1L226.1,46.1z"/>
</g>
</svg>
